<ttFont>
          <CharString index="0">
            4 -106 callsubr
            -4 5 return
          </CharString>
          <CharString index="1">
            5 -100 callgsubr
            return
          </CharString>
          <CharString index="2">
            hlineto
            -104 callgsubr
            return
          </CharString>
          <CharString index="3">
            -91 callgsubr
            vlineto
            -10 return
          </CharString>
          <CharString index="4">
            529 callsubr
            7 -101 callgsubr
            return
          </CharString>
          <CharString index="5">
            11 -97 callsubr
            -11 vhcurveto
            return
          </CharString>
          <CharString index="6">
            hlineto
            -102 callsubr
            return
          </CharString>
          <CharString index="7">
            hlineto
            -99 callgsubr
            return
          </CharString>
          <CharString index="8">
            vlineto
            -97 callgsubr
            return
          </CharString>
          <CharString index="9">
            hlineto
            -96 callgsubr
            return
          </CharString>
          <CharString index="10">
            5 -106 callsubr
            -5 5 return
          </CharString>
          <CharString index="11">
            3 -86 callgsubr
            return
          </CharString>
          <CharString index="12">
            -98 callsubr
            -194 vlineto
            -66 -34 -21 191 callgsubr
            -4 -76 callsubr
            -33 -4 callsubr
            20 hlineto
            88 55 47 101 hvcurveto
            196 529 callsubr
            7 vhcurveto
            return
          </CharString>
          <CharString index="13">
            rmoveto
            71 hlineto
            97 53 265 callgsubr
            -51 42 -86 375 callsubr
            -50 vlineto
            138 callsubr
            5 139 callgsubr
            52 69 callsubr
            -129 -25 callsubr
            -43 vlineto
            23 -29 153 -219 rlineto
            -6 3 5 716 callsubr
            -1 5 -3 3 hvcurveto
            return
          </CharString>
          <CharString index="14">
            vlineto
            -83 callsubr
            return
          </CharString>
          <CharString index="15">
            -88 callsubr
            122 561 callsubr
            7 20 callsubr
            return
          </CharString>
          <CharString index="16">
            -107 callgsubr
            124 -95 callsubr
            return
          </CharString>
          <CharString index="17">
            268 rmoveto
            -83 callgsubr
            168 340 callsubr
            return
          </CharString>
          <CharString index="18">
            -89 callgsubr
            73 -101 callsubr
            return
          </CharString>
          <CharString index="19">
            vhcurveto
            38 -26 callgsubr
            314 vlineto
            54 30 30 56 349 callsubr
            -31 -32 -59 vhcurveto
            -38 hlineto
            -11 249 callsubr
            46 hlineto
            94 55 56 93 1 81 callsubr
            -47 -34 -17 -27 -13 hvcurveto
            -4 return
          </CharString>
          <CharString index="20">
            258 callsubr
            -289 374 callgsubr
            -130 hlineto
            -11 21 -17 14 -22 8 rrcurveto
            4 vlineto
            40 17 24 39 56 vvcurveto
            22 vlineto
            95 -52 54 -97 vhcurveto
            -90 -67 callsubr
            83 hlineto
            59 30 -30 -58 hvcurveto
            -20 vlineto
            -57 -30 -30 -59 vhcurveto
            -58 hlineto
            -10 249 callsubr
            57 hlineto
            59 30 -29 -57 hvcurveto
            -33 vlineto
            -58 -30 -31 -59 vhcurveto
            -116 hlineto
            -12 492 callsubr
            -32 462 callgsubr
            120 hlineto
            95 57 55 95 hvcurveto
            39 vlineto
            6 116 340 callsubr
            -208 vlineto
            -11 6 29 callgsubr
            38 hlineto
            10 5 4 11 hvcurveto
            538 529 callsubr
            7 vhcurveto
            return
          </CharString>
          <CharString index="21">
            -4 -104 callsubr
            4 -5 return
          </CharString>
          <CharString index="22">
            -3 -85 callgsubr
            return
          </CharString>
          <CharString index="23">
            -11 -64 callgsubr
            11 vhcurveto
            return
          </CharString>
          <CharString index="24">
            -100 56 -49 93 vhcurveto
            -90 callgsubr
            return
          </CharString>
          <CharString index="25">
            22 callsubr
            -45 hlineto
            -7 callgsubr
            hvcurveto
            return
          </CharString>
          <CharString index="26">
            -61 callgsubr
            3 4 7 56 callgsubr
            return
          </CharString>
          <CharString index="27">
            -1 callgsubr
            65 -58 callsubr
            return
          </CharString>
          <CharString index="28">
            29 -41 -75 callgsubr
            return
          </CharString>
          <CharString index="29">
            -107 callgsubr
            190 -27 callsubr
            -78 -25 callsubr
            -43 440 callgsubr
            return
          </CharString>
          <CharString index="30">
            -66 -39 -42 228 callsubr
            -21 hvcurveto
            -13 4 8 -7 14 hhcurveto
            29 hlineto
            8 5 5 196 callsubr
            8 hvcurveto
            -5 15 97 callgsubr
            return
          </CharString>
          <CharString index="31">
            -5 -10 hvcurveto
            return
          </CharString>
          <CharString index="32">
            -58 -24 594 callsubr
            22 29 58 vhcurveto
            13 hlineto
            12 4 4 91 callgsubr
            -18 hlineto
            -93 -49 646 callsubr
            -87 46 -56 89 vhcurveto
            return
          </CharString>
          <CharString index="33">
            -11 5 29 callgsubr
            38 hlineto
            10 5 -37 callgsubr
            return
          </CharString>
          <CharString index="34">
            hlineto
            -71 callsubr
            return
          </CharString>
          <CharString index="35">
            -54 -30 -37 -62 vhcurveto
            -35 hlineto
            -61 -62 callgsubr
            return
          </CharString>
          <CharString index="36">
            -11 -4 -60 callsubr
            82 52 48 95 hvcurveto
            74 vlineto
            38 return
          </CharString>
          <CharString index="37">
            -10 callsubr
            42 25 callsubr
            return
          </CharString>
          <CharString index="38">
            18 649 callgsubr
            -78 -77 -25 -41 -67 vhcurveto
            -16 620 callgsubr
            15 vhcurveto
            24 -26 callgsubr
            14 vlineto
            39 8 18 37 38 8 -19 -38 vhcurveto
            -16 vlineto
            -54 -22 -24 -55 vhcurveto
            -88 hlineto
            -59 -29 30 59 hvcurveto
            114 118 callgsubr
            152 hlineto
            17 14 12 20 hvcurveto
            131 93 callgsubr
            return
          </CharString>
          <CharString index="39">
            306 callsubr
            -81 vlineto
            -59 -32 -32 -59 vhcurveto
            -38 hlineto
            -11 -4 64 callsubr
            46 hlineto
            94 56 56 93 hvcurveto
            87 39 callgsubr
            return
          </CharString>
          <CharString index="40">
            hlineto
            -107 callgsubr
            return
          </CharString>
          <CharString index="41">
            -69 -37 -59 callgsubr
            return
          </CharString>
          <CharString index="42">
            -20 callgsubr
            7 vhcurveto
            75 -101 callsubr
            return
          </CharString>
          <CharString index="43">
            30 hlineto
            46 32 -21 callgsubr
            38 -26 callgsubr
            return
          </CharString>
          <CharString index="44">
            -52 callsubr
            -64 -25 callsubr
            return
          </CharString>
          <CharString index="45">
            vlineto
            -82 callsubr
            return
          </CharString>
          <CharString index="46">
            -12 5 29 callgsubr
            38 181 callgsubr
            86 356 callgsubr
            return
          </CharString>
          <CharString index="47">
            106 callsubr
            49 hlineto
            47 37 588 callsubr
            -26 -27 198 callgsubr
            return
          </CharString>
          <CharString index="48">
            22 -29 -50 callsubr
            return
          </CharString>
          <CharString index="49">
            -98 callsubr
            -375 -42 callsubr
            return
          </CharString>
          <CharString index="50">
            -13 callsubr
            -45 hlineto
            146 callgsubr
            return
          </CharString>
          <CharString index="51">
            -98 callsubr
            -315 vlineto
            -72 callsubr
            return
          </CharString>
          <CharString index="52">
            2 -86 callgsubr
            return
          </CharString>
          <CharString index="53">
            653 callgsubr
            -77 hvcurveto
            -11 341 callsubr
            59 hlineto
            45 17 -18 -41 hvcurveto
            -28 vlineto
            -44 -20 -17 -48 vhcurveto
            -48 374 callsubr
            19 265 callsubr
            391 callgsubr
            -212 vlineto
            -11 6 -4 9 641 callgsubr
            98 4 vlineto
            -24 14 28 -9 35 hhcurveto
            47 hlineto
            80 47 41 76 hvcurveto
            40 vlineto
            22 -6 return
          </CharString>
          <CharString index="54">
            721 callgsubr
            -3 1 -2 1 -3 hvcurveto
            88 -137 98 callsubr
            5 6 7 254 callsubr
            3 hvcurveto
            return
          </CharString>
          <CharString index="55">
            -98 callsubr
            -151 92 callgsubr
            return
          </CharString>
          <CharString index="56">
            -46 88 vhcurveto
            -35 callgsubr
            return
          </CharString>
          <CharString index="57">
            152 -230 rlineto
            -5 4 5 -6 9 hhcurveto
            41 hlineto
            8 6 6 8 3 -2 5 -3 4 hvcurveto
            return
          </CharString>
          <CharString index="58">
            249 hmoveto
            8 6 674 callsubr
            132 537 rlineto
            4 hlineto
            131 -537 rlineto
            -9 2 6 -5 9 hhcurveto
            77 hlineto
            9 700 callsubr
            129 614 rlineto
            10 2 -5 5 -10 hhcurveto
            -54 596 callsubr
            hvcurveto
            -100 -550 rlineto
            -6 hlineto
            -137 552 rlineto
            10 -2 -6 3 -8 hhcurveto
            -60 hlineto
            -7 -7 -3 -10 -2 hvcurveto
            -135 -552 rlineto
            -6 hlineto
            -101 551 rlineto
            11 -1 -6 3 -9 hhcurveto
            706 callgsubr
            -9 2 hvcurveto
            128 -615 rlineto
            -11 2 6 -3 9 hhcurveto
            return
          </CharString>
          <CharString index="59">
            -66 callgsubr
            279 476 callgsubr
            -81 -54 callsubr
            return
          </CharString>
          <CharString index="60">
            600 callgsubr
            -32 callgsubr
            return
          </CharString>
          <CharString index="61">
            378 callgsubr
            3 5 10 hvcurveto
            30 -33 callsubr
            return
          </CharString>
          <CharString index="62">
            0 callgsubr
            77 vlineto
            67 return
          </CharString>
          <CharString index="63">
            hvcurveto
            -31 -43 callgsubr
            return
          </CharString>
          <CharString index="64">
            47 325 hmoveto
            91 318 callsubr
            168 vlineto
            14 -8 7 -12 vhcurveto
            -161 150 callgsubr
            -9 3 -4 11 vhcurveto
            99 hlineto
            7 2 -3 -7 hvcurveto
            -112 vlineto
            -56 -27 -31 -56 vhcurveto
            -91 116 callsubr
            91 hlineto
            56 652 callgsubr
            -38 vlineto
            -11 251 callsubr
            11 hvcurveto
            41 304 callgsubr
            -91 vhcurveto
            -108 hlineto
            706 callsubr
            -347 vlineto
            -93 56 -55 92 vhcurveto
            return
          </CharString>
          <CharString index="65">
            vlineto
            -39 callsubr
            return
          </CharString>
          <CharString index="66">
            hlineto
            706 callsubr
            -214 vlineto
            -93 56 -55 92 vhcurveto
            return
          </CharString>
          <CharString index="67">
            322 rmoveto
            352 callsubr
            199 callgsubr
            191 -98 callsubr
            return
          </CharString>
          <CharString index="68">
            -61 callsubr
            7 vhcurveto
            return
          </CharString>
          <CharString index="69">
            5 5 10 hvcurveto
            return
          </CharString>
          <CharString index="70">
            hlineto
            6 -1 2 -4 -5 vvcurveto
            return
          </CharString>
          <CharString index="71">
            hlineto
            54 41 20 34 17 46 callsubr
            return
          </CharString>
          <CharString index="72">
            -84 vlineto
            377 callgsubr
            27 hlineto
            -85 -88 rlineto
            -3 -3 -2 -3 -4 537 callgsubr
            10 483 callsubr
            8 6 67 72 43 47 8 8 rcurveline
            -89 callsubr
            endchar
          </CharString>
          <CharString index="73">
            -31 110 -157 rmoveto
            112 38 83 94 28 hvcurveto
            149 475 rlineto
            10 3 -5 5 -10 hhcurveto
            -46 hlineto
            -8 -6 -4 -10 -2 hvcurveto
            -129 -412 rlineto
            -4 hlineto
            -129 412 rlineto
            11 -3 -5 3 -9 hhcurveto
            -48 hlineto
            -9 -4 -4 -10 3 hvcurveto
            147 -455 rlineto
            -9 3 4 -5 10 hhcurveto
            29 hlineto
            -65 -21 -19 -54 -88 hhcurveto
            -25 150 callgsubr
            -8 3 -6 11 vhcurveto
            return
          </CharString>
          <CharString index="74">
            vlineto
            -12 callsubr
            return
          </CharString>
          <CharString index="75">
            30 callgsubr
            -9 -3 callsubr
            return
          </CharString>
          <CharString index="76">
            41 69 hvcurveto
            69 34 callgsubr
            18 vlineto
            40 return
          </CharString>
          <CharString index="77">
            vlineto
            22 -29 152 -230 109 callsubr
            return
          </CharString>
          <CharString index="78">
            43 162 317 rmoveto
            -7 -3 3 6 hvcurveto
            244 7 callsubr
            151 hlineto
            57 29 -31 -56 hvcurveto
            -89 vlineto
            -56 -29 -30 -57 vhcurveto
            -175 -317 461 callsubr
            233 7 callsubr
            132 hlineto
            112 -242 rlineto
            -11 6 5 -3 14 hhcurveto
            45 hlineto
            9 7 5 11 -6 hvcurveto
            -116 243 rlineto
            4 vlineto
            63 16 39 50 75 vvcurveto
            91 vlineto
            92 -57 56 -92 vhcurveto
            -230 16 callgsubr
            return
          </CharString>
          <CharString index="79">
            128 hmoveto
            175 callsubr
            56 hlineto
            56 28 52 callgsubr
            -56 hlineto
            -53 -34 -21 -32 -15 hvcurveto
            -4 return
          </CharString>
          <CharString index="80">
            36 callgsubr
            -28 -19 -39 vhcurveto
            return
          </CharString>
          <CharString index="81">
            373 callgsubr
            -183 271 callsubr
            184 -98 callsubr
            return
          </CharString>
          <CharString index="82">
            hlineto
            -12 -6 -7 -10 hvcurveto
            return
          </CharString>
          <CharString index="83">
            45 callsubr
            9 vhcurveto
            42 hlineto
            return
          </CharString>
          <CharString index="84">
            373 callgsubr
            -203 4 hlineto
            11 callgsubr
            return
          </CharString>
          <CharString index="85">
            -31 callgsubr
            -240 vlineto
            -98 56 -46 85 vhcurveto
            171 callsubr
            240 529 callsubr
            6 vhcurveto
            return
          </CharString>
          <CharString index="86">
            30 -16 callsubr
            return
          </CharString>
          <CharString index="87">
            -103 56 -51 callsubr
            return
          </CharString>
          <CharString index="88">
            8 -96 callsubr
            return
          </CharString>
          <CharString index="89">
            -24 -54 hvcurveto
            -12 vlineto
            12 callgsubr
            return
          </CharString>
          <CharString index="90">
            141 callsubr
            39 hlineto
            10 155 callgsubr
            -100 vhcurveto
            endchar
          </CharString>
          <CharString index="91">
            343 callgsubr
            -12 vhcurveto
            return
          </CharString>
          <CharString index="92">
            6 272 210 callgsubr
            227 vlineto
            191 387 rlineto
            9 5 -5 6 -9 hhcurveto
            -57 hlineto
            -8 -5 -4 -10 -3 hvcurveto
            -142 -303 rlineto
            -5 hlineto
            -143 303 rlineto
            10 -4 -4 4 -9 hhcurveto
            -56 hlineto
            -8 -6 -6 -9 5 hvcurveto
            190 -387 rlineto
            -227 -11 callgsubr
            return
          </CharString>
          <CharString index="93">
            -94 62 -77 112 vhcurveto
            69 callgsubr
            return
          </CharString>
          <CharString index="94">
            51 172 callgsubr
            -39 hlineto
            -46 callgsubr
            482 vlineto
            22 callsubr
            return
          </CharString>
          <CharString index="95">
            10 39 callsubr
            return
          </CharString>
          <CharString index="96">
            -76 callsubr
            -29 vlineto
            return
          </CharString>
          <CharString index="97">
            rlineto
            -6 3 303 callsubr
            return
          </CharString>
          <CharString index="98">
            vhcurveto
            -197 194 rlineto
            11 15 20 6 25 hhcurveto
            38 callsubr
            return
          </CharString>
          <CharString index="99">
            -11 -5 -4 3 callsubr
            return
          </CharString>
          <CharString index="100">
            -8 callsubr
            135 -42 callgsubr
            return
          </CharString>
          <CharString index="101">
            259 -94 callsubr
            return
          </CharString>
          <CharString index="102">
            -45 callgsubr
            9 267 callsubr
            return
          </CharString>
          <CharString index="103">
            vlineto
            -10 4 -5 11 vhcurveto
            return
          </CharString>
          <CharString index="104">
            5 -5 11 vhcurveto
            return
          </CharString>
          <CharString index="105">
            4 8 -101 callgsubr
            return
          </CharString>
          <CharString index="106">
            15 17 callsubr
            return
          </CharString>
          <CharString index="107">
            -3 623 -56 callgsubr
            return
          </CharString>
          <CharString index="108">
            324 rmoveto
            701 callgsubr
            -25 hlineto
            351 callsubr
            228 529 callsubr
            7 vhcurveto
            181 -25 callgsubr
            return
          </CharString>
          <CharString index="109">
            38 callgsubr
            341 53 callsubr
            return
          </CharString>
          <CharString index="110">
            -10 -44 callsubr
            return
          </CharString>
          <CharString index="111">
            -54 -31 -30 -56 40 callgsubr
            32 59 hvcurveto
            81 -92 callgsubr
            -94 -56 -56 -93 hvcurveto
            return
          </CharString>
          <CharString index="112">
            87 callsubr
            37 279 callgsubr
            return
          </CharString>
          <CharString index="113">
            hlineto
            10 callsubr
            return
          </CharString>
          <CharString index="114">
            vlineto
            6 3 3 7 vhcurveto
            return
          </CharString>
          <CharString index="115">
            -76 33 14 rmoveto
            290 callgsubr
            323 hlineto
            10 4 5 9 hvcurveto
            35 591 callgsubr
            -242 4 hlineto
            239 368 rlineto
            6 6 3 6 15 vvcurveto
            33 266 callsubr
            -307 hlineto
            -11 -3 136 callsubr
            3 -6 11 vhcurveto
            235 -4 hlineto
            -247 -378 rlineto
            -6 -8 -4 -6 -17 vvcurveto
            return
          </CharString>
          <CharString index="116">
            87 137 hmoveto
            18 callsubr
            return
          </CharString>
          <CharString index="117">
            -47 -22 callgsubr
            return
          </CharString>
          <CharString index="118">
            314 callsubr
            29 callgsubr
            38 hlineto
            10 5 4 11 hvcurveto
            538 529 callsubr
            return
          </CharString>
          <CharString index="119">
            5 13 callgsubr
            return
          </CharString>
          <CharString index="120">
            107 callsubr
            46 22 -26 -49 147 callsubr
            return
          </CharString>
          <CharString index="121">
            -66 callgsubr
            322 105 callsubr
            return
          </CharString>
          <CharString index="122">
            529 callsubr
            7 -46 callsubr
            return
          </CharString>
          <CharString index="123">
            -23 -4 callgsubr
            return
          </CharString>
          <CharString index="124">
            29 16 hvcurveto
            4 return
          </CharString>
          <CharString index="125">
            430 callsubr
            275 -480 rlineto
            -4 3 5 -9 13 hhcurveto
            37 217 callsubr
            -44 389 callsubr
            -276 485 rlineto
            2 -1 -4 6 -11 hhcurveto
            -41 16 callgsubr
            return
          </CharString>
          <CharString index="126">
            157 629 21 callsubr
            return
          </CharString>
          <CharString index="127">
            vhcurveto
            323 -101 callsubr
            return
          </CharString>
          <CharString index="128">
            rmoveto
            11 -5 3 -9 vhcurveto
            -45 16 callgsubr
            45 hlineto
            9 5 3 11 hvcurveto
            return
          </CharString>
          <CharString index="129">
            11 206 callgsubr
            return
          </CharString>
          <CharString index="130">
            348 callsubr
            -317 vlineto
            -60 -30 -39 -72 -1 vhcurveto
            -90 hlineto
            -56 -25 23 58 hvcurveto
            37 vlineto
            46 23 25 45 vhcurveto
            63 722 callgsubr
            10 hvcurveto
            32 370 callgsubr
            -45 -23 24 45 536 callgsubr
            return
          </CharString>
          <CharString index="131">
            32 228 callgsubr
            511 callgsubr
            5 29 callgsubr
            return
          </CharString>
          <CharString index="132">
            109 callgsubr
            5 return
          </CharString>
          <CharString index="133">
            rmoveto
            -14 12 12 8 7 14 3 18 rlinecurve
            18 -15 rlineto
            -231 vmoveto
            -60 -29 -33 -59 vhcurveto
            -86 hlineto
            -59 -29 33 60 hvcurveto
            46 vlineto
            60 21 31 59 vhcurveto
            101 hlineto
            60 21 -31 -60 hvcurveto
            -279 356 rmoveto
            29 32 16 -13 rlineto
            -1 hlineto
            -7 -3 -86 callgsubr
            -37 vlineto
            -146 107 -15 callgsubr
            68 459 callsubr
            18 -33 31 651 callsubr
            -45 -22 -19 -41 -64 vvcurveto
            -51 vlineto
            return
          </CharString>
          <CharString index="134">
            125 callgsubr
            45 hlineto
            10 4 3 11 hvcurveto
            482 vlineto
            22 callsubr
            -46 202 callsubr
            return
          </CharString>
          <CharString index="135">
            241 callgsubr
            5 return
          </CharString>
          <CharString index="136">
            572 callgsubr
            89 75 callgsubr
            return
          </CharString>
          <CharString index="137">
            183 callgsubr
            107 641 callsubr
            -72 vlineto
            -46 19 -32 652 callsubr
            vlineto
            -43 -14 -18 -35 -52 vvcurveto
            -41 vlineto
            return
          </CharString>
          <CharString index="138">
            257 callsubr
            -58 hvcurveto
            -49 vlineto
            -81 -60 -185 84 callsubr
            return
          </CharString>
          <CharString index="139">
            7 -55 callsubr
            return
          </CharString>
          <CharString index="140">
            -58 -32 -34 -61 vhcurveto
            -57 54 callgsubr
            return
          </CharString>
          <CharString index="141">
            -95 366 50 rmoveto
            169 callgsubr
            137 504 callsubr
            -4 5 -10 vhcurveto
            -145 -41 callsubr
            145 267 callgsubr
            return
          </CharString>
          <CharString index="142">
            -103 callgsubr
            -92 return
          </CharString>
          <CharString index="143">
            -171 128 210 callgsubr
            331 vlineto
            61 32 40 61 vhcurveto
            54 hlineto
            10 -1 3 5 9 vvcurveto
            37 605 callgsubr
            -10 vhcurveto
            -39 hlineto
            -53 -39 -27 -27 -12 hvcurveto
            -4 40 48 callsubr
            return
          </CharString>
          <CharString index="144">
            -11 5 29 callgsubr
            38 hlineto
            10 5 4 11 hvcurveto
            315 vlineto
            54 31 30 55 349 callsubr
            -31 -32 -59 vhcurveto
            -38 hlineto
            -11 249 callsubr
            46 hlineto
            94 55 56 93 1 81 callsubr
            -47 -33 -17 -27 -14 hvcurveto
            -4 122 7 callgsubr
            323 -105 callsubr
            return
          </CharString>
          <CharString index="145">
            54 -101 callsubr
            -60 hlineto
            return
          </CharString>
          <CharString index="146">
            -3 5 -12 vhcurveto
            return
          </CharString>
          <CharString index="147">
            -67 -38 -42 -60 -25 4 70 callsubr
            -4 15 -5 479 callgsubr
            return
          </CharString>
          <CharString index="148">
            -7 177 callgsubr
            return
          </CharString>
          <CharString index="149">
            59 callgsubr
            79 100 callgsubr
          </CharString>
          <CharString index="150">
            -11 -5 -5 -10 hvcurveto
            -29 vlineto
            -11 5 -5 11 vhcurveto
            98 79 callsubr
            return
          </CharString>
          <CharString index="151">
            hlineto
            11 4 5 9 hvcurveto
            31 vlineto
            10 -4 5 -11 123 callsubr
            return
          </CharString>
          <CharString index="152">
            131 callsubr
            5 -5 return
          </CharString>
          <CharString index="153">
            464 callsubr
            6 -4 return
          </CharString>
          <CharString index="154">
            vlineto
            41 callsubr
            return
          </CharString>
          <CharString index="155">
            hlineto
            -82 callsubr
            -482 -11 callgsubr
            return
          </CharString>
          <CharString index="156">
            886 rmoveto
            259 callgsubr
            -34 126 callsubr
            -38 398 callsubr
            34 hlineto
            9 5 4 11 hvcurveto
            16 -158 rmoveto
            79 39 41 84 hvcurveto
            6 vlineto
            14 -6 6 -11 307 callsubr
            -75 hlineto
            -49 -17 244 callgsubr
            -30 hlineto
            -11 -6 388 callsubr
            return
          </CharString>
          <CharString index="157">
            44 callgsubr
            -171 -101 44 callgsubr
            endchar
          </CharString>
          <CharString index="158">
            -59 callsubr
            -162 244 rlineto
            return
          </CharString>
          <CharString index="159">
            113 callsubr
            167 315 callsubr
            return
          </CharString>
          <CharString index="160">
            vlineto
            56 27 31 56 vhcurveto
            return
          </CharString>
          <CharString index="161">
            279 callsubr
            -44 80 callgsubr
            5 16 20 vvcurveto
            return
          </CharString>
          <CharString index="162">
            vlineto
            -49 -22 -19 -47 -1 vhcurveto
            -10 hlineto
            -48 1 -21 19 49 vvcurveto
            125 vlineto
            39 -24 14 -32 vhcurveto
            -177 4 hlineto
            39 15 24 39 55 vvcurveto
            32 vlineto
            94 -51 53 -96 vhcurveto
            -94 hlineto
            -12 -4 -76 callsubr
            -31 vlineto
            -11 4 -4 12 vhcurveto
            86 hlineto
            62 26 -30 -57 hvcurveto
            -27 vlineto
            -50 -23 -34 -64 vhcurveto
            -54 hlineto
            -10 -5 -6 562 callsubr
            -27 vlineto
            -62 -31 -34 -58 vhcurveto
            -26 hlineto
            -59 -33 32 60 hvcurveto
            33 vlineto
            13 438 callgsubr
            -38 hlineto
            -10 -5 -5 -13 hvcurveto
            -33 vlineto
            -96 57 -58 95 vhcurveto
            38 hlineto
            97 54 60 94 hvcurveto
            48 vlineto
            17 -2 15 -5 14 vhcurveto
            102 hlineto
            7 3 -3 -7 hvcurveto
            -113 vlineto
            -81 46 -44 80 vhcurveto
            25 hlineto
            80 46 44 81 hvcurveto
            return
          </CharString>
          <CharString index="163">
            rmoveto
            -54 -27 27 58 hvcurveto
            91 vlineto
            213 -175 rlineto
            -1 -2 -2 0 -2 hhcurveto
            6 225 435 callsubr
            -165 vlineto
            -214 175 rlineto
            2 hlineto
            -151 60 -15 callgsubr
            65 459 callsubr
            20 -33 32 651 callsubr
            -41 -19 -23 -44 -64 vvcurveto
            -55 vlineto
            return
          </CharString>
          <CharString index="164">
            117 callgsubr
            201 -197 rlineto
            -18 -15 -24 -11 -33 hhcurveto
            return
          </CharString>
          <CharString index="165">
            hlineto
            -60 -30 509 callgsubr
            59 32 32 59 vhcurveto
            38 callsubr
            -94 -56 -56 -93 351 callgsubr
            -56 92 vhcurveto
            return
          </CharString>
          <CharString index="166">
            hhcurveto
            -34 hlineto
            -10 -6 -3 -7 -5 hvcurveto
            -63 467 callsubr
            2 -5 8 hhcurveto
            return
          </CharString>
          <CharString index="167">
            rmoveto
            -87 callsubr
            return
          </CharString>
          <CharString index="168">
            653 rmoveto
            -49 13 -28 50 25 18 6 44 17 vhcurveto
            30 14 3 625 callgsubr
            7 vhcurveto
            21 522 callsubr
            -49 -28 -14 -8 -36 -16 vhcurveto
            -36 413 callsubr
            37 hvcurveto
            26 vlineto
            9 312 callsubr
            -9 hvcurveto
            endchar
          </CharString>
          <CharString index="169">
            3 callgsubr
            -124 hlineto
            -93 -53 -55 -95 hvcurveto
            return
          </CharString>
          <CharString index="170">
            -3 139 callsubr
            5 -2 5 return
          </CharString>
          <CharString index="171">
            -5 67 callgsubr
            return
          </CharString>
          <CharString index="172">
            68 callsubr
            -6 return
          </CharString>
          <CharString index="173">
            -41 callgsubr
            9 5 5 10 hvcurveto
            43 vlineto
            10 438 callgsubr
            return
          </CharString>
          <CharString index="174">
            vlineto
            58 29 32 55 vhcurveto
            60 -5 callsubr
            return
          </CharString>
          <CharString index="175">
            4 7 56 -38 22 -54 26 hvcurveto
            -63 32 rlineto
            -34 17 -24 14 46 vvcurveto
            16 vlineto
            11 -4 4 -11 vhcurveto
            -37 477 callsubr
            -58 25 -33 58 -30 vhcurveto
            59 -30 rlineto
            61 -31 8 -8 -21 vvcurveto
            return
          </CharString>
          <CharString index="176">
            51 68 callgsubr
            return
          </CharString>
          <CharString index="177">
            -31 12 -22 hvcurveto
            -2 callgsubr
            return
          </CharString>
          <CharString index="178">
            rmoveto
            42 24 -15 -24 13 hvcurveto
            -7 6 2 -7 8 hhcurveto
            4 2 1 4 6 hvcurveto
            20 15 rlineto
            7 4 3 5 6 vvcurveto
            5 -2 5 -2 3 vhcurveto
            43 -21 -43 23 -59 530 callgsubr
            234 -100 callsubr
            -658 hlineto
            147 callgsubr
            -47 callsubr
            309 398 callgsubr
            return
          </CharString>
          <CharString index="179">
            -43 414 594 callgsubr
            37 591 callgsubr
            -252 hlineto
            -7 -3 3 6 hvcurveto
            554 168 callgsubr
            return
          </CharString>
          <CharString index="180">
            129 callgsubr
            -79 170 callgsubr
            -36 -76 hvcurveto
            return
          </CharString>
          <CharString index="181">
            -2 callgsubr
            -5 664 callgsubr
            return
          </CharString>
          <CharString index="182">
            rmoveto
            215 callgsubr
            -105 hlineto
            -38 -25 14 26 -12 hvcurveto
            264 368 rlineto
            -273 20 rmoveto
            56 27 31 57 vhcurveto
            105 hlineto
            37 25 -14 -26 13 hvcurveto
            -264 -368 rlineto
            352 466 rmoveto
            -8 6 -6 -1 -7 -9 -23 -32 rcurveline
            27 -25 -38 15 -47 hhcurveto
            -123 hlineto
            706 callsubr
            -347 vlineto
            -24 4 -21 7 -19 vhcurveto
            -34 -47 -6 -9 1 -7 7 -5 rlinecurve
            14 -11 8 -5 7 1 6 8 rlinecurve
            23 32 rlineto
            -26 26 38 -15 47 hhcurveto
            123 hlineto
            91 318 callsubr
            347 vlineto
            24 -4 21 -6 18 vhcurveto
            34 48 6 9 0 7 -8 5 rlinecurve
            endchar
          </CharString>
          <CharString index="183">
            hlineto
            11 4 5 10 hvcurveto
            585 callsubr
            return
          </CharString>
          <CharString index="184">
            243 vlineto
            11 -5 4 -10 vhcurveto
            -36 682 callsubr
            -48 vhcurveto
            -64 202 callgsubr
            81 118 callgsubr
            162 502 callgsubr
            7 vhcurveto
            68 100 callgsubr
          </CharString>
          <CharString index="185">
            -54 -30 -37 -62 vhcurveto
            -35 hlineto
            -61 -29 32 59 hvcurveto
            83 vlineto
            59 32 32 59 vhcurveto
            44 577 callsubr
            return
          </CharString>
          <CharString index="186">
            -4 hlineto
            -23 508 callgsubr
            -37 vlineto
            -50 17 -30 43 -15 vhcurveto
            -4 vlineto
            209 callsubr
            return
          </CharString>
          <CharString index="187">
            vlineto
            41 18 16 48 vhcurveto
            120 hlineto
            19 16 11 23 hvcurveto
            100 529 callsubr
            7 vhcurveto
            return
          </CharString>
          <CharString index="188">
            hvcurveto
            87 25 callgsubr
            return
          </CharString>
          <CharString index="189">
            rmoveto
            -75 -38 41 69 hvcurveto
            69 16 vlineto
            84 2 49 36 89 vvcurveto
            18 159 callsubr
            173 365 callsubr
            -416 hlineto
            -7 callsubr
            -114 vlineto
            -94 61 -77 113 vhcurveto
            68 hlineto
            76 53 49 34 24 hvcurveto
            3 3 3 5 4 vvcurveto
            7 614 callgsubr
            -5 -5 -4 -5 -6 hvcurveto
            -25 -25 -27 -33 -54 hhcurveto
            endchar
          </CharString>
          <CharString index="190">
            270 -4 623 rmoveto
            -10 -105 callgsubr
            10 vhcurveto
            341 hlineto
            260 callsubr
            -57 hvcurveto
            -50 vlineto
            -83 -61 -183 -143 99 callgsubr
            202 vlineto
            214 166 rlineto
            return
          </CharString>
          <CharString index="191">
            293 callgsubr
            538 529 callsubr
            8 vhcurveto
            75 hlineto
            12 3 -106 callsubr
            -3 5 -12 vhcurveto
            return
          </CharString>
          <CharString index="192">
            70 90 callsubr
            return
          </CharString>
          <CharString index="193">
            -30 -55 40 callgsubr
            32 59 hvcurveto
            81 118 callsubr
            38 hlineto
            11 5 5 426 callsubr
            -46 hlineto
            return
          </CharString>
          <CharString index="194">
            vlineto
            46 24 24 45 vhcurveto
            62 76 callsubr
            -62 hlineto
            -45 -24 23 46 hvcurveto
            return
          </CharString>
          <CharString index="195">
            431 callgsubr
            29 hlineto
            8 285 callsubr
            return
          </CharString>
          <CharString index="196">
            vhcurveto
            -90 -32 callsubr
            return
          </CharString>
          <CharString index="197">
            rmoveto
            -8 callsubr
            return
          </CharString>
          <CharString index="198">
            114 callgsubr
            -6 return
          </CharString>
          <CharString index="199">
            -4 450 callgsubr
            4 4 10 hvcurveto
            102 vlineto
            508 callsubr
            -43 hlineto
            -8 return
          </CharString>
          <CharString index="200">
            -67 callsubr
            75 hlineto
            7 671 callsubr
            vlineto
            -95 61 -67 102 vhcurveto
            171 hlineto
            11 1 4 4 11 vvcurveto
            585 callsubr
            -160 hlineto
            -69 -37 37 65 hvcurveto
            358 529 callsubr
            8 vhcurveto
            222 -98 callsubr
            -131 vlineto
            -66 -35 -18 -49 vhcurveto
            -33 hlineto
            -11 249 callsubr
            40 hlineto
            88 57 45 100 hvcurveto
            131 529 callsubr
            8 vhcurveto
            55 -101 callsubr
            endchar
          </CharString>
          <CharString index="201">
            rmoveto
            40 callsubr
            173 -28 hlineto
            -265 -272 169 callsubr
            45 hlineto
            11 6 4 8 8 hvcurveto
            220 232 rlineto
            16 17 4 17 38 vvcurveto
            52 -33 callsubr
            -378 240 rmoveto
            -84 callsubr
            378 -105 callsubr
            endchar
          </CharString>
          <CharString index="202">
            5 409 callgsubr
            return
          </CharString>
          <CharString index="203">
            -66 callgsubr
            333 112 callsubr
            return
          </CharString>
          <CharString index="204">
            hlineto
            143 callgsubr
            return
          </CharString>
          <CharString index="205">
            rlineto
            -7 4 6 -5 9 hhcurveto
            41 hlineto
            8 return
          </CharString>
          <CharString index="206">
            268 rmoveto
            -69 -38 -59 callgsubr
            -13 27 -22 13 vhcurveto
            4 167 vlineto
            8 3 -4 -6 hvcurveto
            return
          </CharString>
          <CharString index="207">
            rmoveto
            6 8 3 5 6 vvcurveto
            6 -2 2 -7 5 vhcurveto
            -15 12 rlineto
            3 -4 -3 1 -3 hhcurveto
            -7 -4 -6 -6 -5 hvcurveto
            -32 -23 -23 -25 -39 hhcurveto
            -4 74 callgsubr
            -80 40 -53 77 vhcurveto
            6 hlineto
            13 9 3 0 hvcurveto
            -4 vlineto
            -1 -32 -27 -43 -35 hvcurveto
            181 callsubr
            9 hvcurveto
            return
          </CharString>
          <CharString index="208">
            621 callsubr
            -59 vhcurveto
            -135 hlineto
            -58 -24 23 57 hvcurveto
            return
          </CharString>
          <CharString index="209">
            rmoveto
            2 callsubr
            return
          </CharString>
          <CharString index="210">
            -10 142 callsubr
            return
          </CharString>
          <CharString index="211">
            290 callsubr
            135 167 callgsubr
            -302 vlineto
            348 callgsubr
            return
          </CharString>
          <CharString index="212">
            -98 callsubr
            -93 vlineto
            -6 186 callsubr
            -110 hlineto
            -94 -53 -55 -95 hvcurveto
            -113 vlineto
            return
          </CharString>
          <CharString index="213">
            91 callsubr
            11 vhcurveto
            return
          </CharString>
          <CharString index="214">
            290 callsubr
            144 71 callgsubr
            return
          </CharString>
          <CharString index="215">
            hlineto
            -8 -5 -5 -7 -4 2 -3 2 -4 hvcurveto
            return
          </CharString>
          <CharString index="216">
            rlineto
            -5 4 5 -6 9 hhcurveto
            41 hlineto
            8 6 6 8 3 -2 5 -3 4 hvcurveto
            -162 244 rlineto
            29 hlineto
            72 50 135 callgsubr
            271 -98 callsubr
            -275 vlineto
            -55 -24 -35 -61 vhcurveto
            -5 hlineto
            -75 callsubr
            11 hlineto
            42 1 31 15 16 27 rrcurveto
            return
          </CharString>
          <CharString index="217">
            rmoveto
            114 callsubr
            32 hlineto
            return
          </CharString>
          <CharString index="218">
            vlineto
            10 callgsubr
            return
          </CharString>
          <CharString index="219">
            62 callsubr
            151 callgsubr
            return
          </CharString>
          <CharString index="220">
            vlineto
            40 -13 18 callgsubr
            return
          </CharString>
          <CharString index="221">
            -106 callgsubr
            314 95 callgsubr
            return
          </CharString>
          <CharString index="222">
            50 vlineto
            75 -46 35 -80 vhcurveto
            -87 hlineto
            -47 -20 12 46 hvcurveto
            10 42 callsubr
          </CharString>
          <CharString index="223">
            hlineto
            2 callsubr
            return
          </CharString>
          <CharString index="224">
            -88 -47 88 rlineto
            6 -3 -4 2 -7 hhcurveto
            -34 hlineto
            return
          </CharString>
          <CharString index="225">
            vlineto
            59 31 32 59 vhcurveto
            return
          </CharString>
          <CharString index="226">
            -104 323 callsubr
            148 7 callgsubr
            return
          </CharString>
          <CharString index="227">
            -53 -29 -21 -37 vhcurveto
            return
          </CharString>
          <CharString index="228">
            hlineto
            11 1 4 4 11 vvcurveto
            693 callgsubr
            endchar
          </CharString>
          <CharString index="229">
            275 callgsubr
            31 hlineto
            72 49 135 callgsubr
            66 -105 callsubr
            -344 -67 callsubr
            190 -6 callgsubr
            endchar
          </CharString>
          <CharString index="230">
            528 callgsubr
            25 45 hvcurveto
            64 339 callsubr
            return
          </CharString>
          <CharString index="231">
            vlineto
            173 callsubr
            return
          </CharString>
          <CharString index="232">
            369 156 rmoveto
            -58 -33 -34 -60 vhcurveto
            -61 157 callgsubr
            61 hlineto
            60 33 -34 -58 hvcurveto
            -107 -354 rmoveto
            52 172 callgsubr
            -39 hlineto
            -11 4 -3 266 callgsubr
            3 11 hvcurveto
            675 201 callgsubr
            -232 -4 vlineto
            32 -15 -36 21 -52 hhcurveto
            -59 hlineto
            -91 -53 -55 -93 hvcurveto
            -214 233 callgsubr
            return
          </CharString>
          <CharString index="233">
            hlineto
            182 callgsubr
            return
          </CharString>
          <CharString index="234">
            294 callgsubr
            8 505 callsubr
            return
          </CharString>
          <CharString index="235">
            -12 5 8 -8 13 hhcurveto
            29 622 callgsubr
            -5 return
          </CharString>
          <CharString index="236">
            hlineto
            -79 callgsubr
            return
          </CharString>
          <CharString index="237">
            264 callgsubr
            8 return
          </CharString>
          <CharString index="238">
            -10 273 callgsubr
            return
          </CharString>
          <CharString index="239">
            rmoveto
            -40 24 -28 32 53 vvcurveto
            59 23 19 54 53 22 -19 -59 -44 -17 -38 -52 -36 vhcurveto
            238 254 rmoveto
            -17 -11 -13 -17 hvcurveto
            -352 vlineto
            -152 92 rlineto
            47 36 31 44 74 vvcurveto
            94 -45 43 -97 -101 -45 -43 -92 -78 43 -46 50 -32 vhcurveto
            -133 -81 rlineto
            -5 598 callsubr
            -3 1 -3 3 -3 vhcurveto
            25 -27 rlineto
            -4 3 4 -1 5 hhcurveto
            3 5 2 2 4 hvcurveto
            147 91 return
          </CharString>
          <CharString index="240">
            -100 callsubr
            endchar
          </CharString>
          <CharString index="241">
            -67 callsubr
            327 194 callgsubr
            -27 5 -21 11 -16 vhcurveto
            -164 213 callgsubr
            29 hlineto
            8 5 6 7 697 callsubr
            16 -4 15 18 vvcurveto
            35 19 16 39 vhcurveto
            148 hlineto
            -14 -18 -7 -24 -30 vvcurveto
            -37 vlineto
            -90 53 -48 88 vhcurveto
            102 hlineto
            return
          </CharString>
          <CharString index="242">
            -1 callsubr
            -118 hlineto
            -11 5 -5 return
          </CharString>
          <CharString index="243">
            -5 205 callgsubr
            return
          </CharString>
          <CharString index="244">
            hlineto
            -11 -4 114 callgsubr
            -5 11 vhcurveto
            49 hlineto
            47 37 -21 -66 hvcurveto
            return
          </CharString>
          <CharString index="245">
            -11 5 29 callgsubr
            38 hlineto
            9 return
          </CharString>
          <CharString index="246">
            231 callsubr
            5 8 return
          </CharString>
          <CharString index="247">
            311 rmoveto
            -61 -32 -20 -44 vhcurveto
            -17 hlineto
            -45 -31 20 61 hvcurveto
            242 529 callsubr
            7 vhcurveto
            149 -98 callsubr
            return
          </CharString>
          <CharString index="248">
            156 callgsubr
            5 -4 9 vhcurveto
            return
          </CharString>
          <CharString index="249">
            204 callsubr
            -4 return
          </CharString>
          <CharString index="250">
            vhcurveto
            -125 hlineto
            474 callsubr
            -101 hlineto
            79 callgsubr
            return
          </CharString>
          <CharString index="251" raw="1">
            a906b9ab 9aa89b1f 8ffb0af7 420a0b
          </CharString>
          <CharString index="252">
            rmoveto
            351 callsubr
            228 529 callsubr
            7 vhcurveto
            181 -25 callgsubr
            -229 vlineto
            701 callgsubr
            return
          </CharString>
          <CharString index="253">
            -42 callgsubr
            -114 vlineto
            return
          </CharString>
          <CharString index="254">
            hvcurveto
            -310 111 callsubr
            return
          </CharString>
          <CharString index="255">
            hlineto
            221 callgsubr
            return
          </CharString>
          <CharString index="256">
            676 callsubr
            87 105 rlineto
            8 6 -4 6 return
          </CharString>
          <CharString index="257">
            16 vlineto
            84 49 38 return
          </CharString>
          <CharString index="258">
            49 64 80 hvcurveto
            114 vlineto
            48 -14 35 -28 21 vhcurveto
            12 10 9 18 24 vvcurveto
            98 vlineto
            7 4 3 8 vhcurveto
            77 121 callsubr
          </CharString>
          <CharString index="259">
            -96 callsubr
            -315 vlineto
            -54 -30 -37 -63 vhcurveto
            -35 hlineto
            -60 -19 callgsubr
            4 209 callgsubr
            -4 6 -11 vhcurveto
            -54 hlineto
            return
          </CharString>
          <CharString index="260">
            491 callsubr
            7 -22 hvcurveto
            207 callsubr
            return
          </CharString>
          <CharString index="261">
            113 callsubr
            168 464 callgsubr
            return
          </CharString>
          <CharString index="262">
            hlineto
            -10 441 callsubr
            return
          </CharString>
          <CharString index="263">
            377 callgsubr
            165 callgsubr
            return
          </CharString>
          <CharString index="264">
            5 -3 9 vhcurveto
            return
          </CharString>
          <CharString index="265">
            -7 297 callsubr
            return
          </CharString>
          <CharString index="266">
            vlineto
            40 -14 18 callgsubr
            return
          </CharString>
          <CharString index="267">
            hlineto
            7 3 -3 -6 hvcurveto
            return
          </CharString>
          <CharString index="268">
            45 -17 -38 19 -59 592 callgsubr
            592 callsubr
            94 vhcurveto
            43 176 callgsubr
            -35 hlineto
            -59 -32 385 callsubr
            6 -5 9 247 callgsubr
            return
          </CharString>
          <CharString index="269">
            1 1 10 hvcurveto
            -82 vlineto
            -6 186 callsubr
            -156 hlineto
            -66 -39 -42 -59 -26 5 -30 11 -23 hvcurveto
            -7 5 7 -4 10 hhcurveto
            28 hlineto
            9 5 189 callsubr
            135 hlineto
            7 3 -4 -7 hvcurveto
            -161 vlineto
            -11 5 29 callgsubr
            38 hlineto
            10 5 4 11 hvcurveto
            return
          </CharString>
          <CharString index="270">
            6 4 11 hvcurveto
            538 vlineto
            6 2 4 8 285 callgsubr
          </CharString>
          <CharString index="271">
            79 callgsubr
            396 callsubr
            108 hlineto
            return
          </CharString>
          <CharString index="272">
            rmoveto
            14 callsubr
            return
          </CharString>
          <CharString index="273">
            rmoveto
            -10 721 callsubr
            43 hlineto
            8 4 4 10 hvcurveto
            102 vlineto
            10 -4 190 callsubr
            -4 -10 hvcurveto
            return
          </CharString>
          <CharString index="274">
            rmoveto
            367 callgsubr
            -4 9 vhcurveto
            42 hlineto
            10 4 390 callgsubr
            return
          </CharString>
          <CharString index="275">
            261 callgsubr
            -23 -35 vvcurveto
            return
          </CharString>
          <CharString index="276">
            rlineto
            -3 -4 -1 288 callsubr
            return
          </CharString>
          <CharString index="277">
            hvcurveto
            152 529 callsubr
            7 vhcurveto
            return
          </CharString>
          <CharString index="278">
            22 hlineto
            86 55 45 99 hvcurveto
            return
          </CharString>
          <CharString index="279">
            343 callgsubr
            -11 vhcurveto
            return
          </CharString>
          <CharString index="280">
            -9 298 callgsubr
            return
          </CharString>
          <CharString index="281" raw="1">
            06809086 94330a0b  
          </CharString>
          <CharString index="282">
            205 callsubr
            340 vlineto
            58 32 34 61 vhcurveto
            return
          </CharString>
          <CharString index="283">
            -4 9 376 callgsubr
            4 return
          </CharString>
          <CharString index="284">
            -6 callgsubr
            -117 47 callsubr
            -306 -73 callsubr
            -13 724 callsubr
            return
          </CharString>
          <CharString index="285">
            hlineto
            47 22 -16 -43 -44 -21 -20 -48 hvcurveto
            -67 hlineto
            -12 -4 -76 callsubr
            -48 vlineto
            -95 52 -61 113 vhcurveto
            47 hlineto
            54 39 20 34 19 hvcurveto
            4 -80 193 callgsubr
            -107 callsubr
            -12 vhcurveto
            endchar
          </CharString>
          <CharString index="286">
            -45 279 callsubr
            -44 hlineto
            -8 215 callsubr
            -180 vlineto
            -9 5 -3 6 4 640 callsubr
            11 719 callgsubr
          </CharString>
          <CharString index="287">
            vlineto
            86 -50 47 -86 vhcurveto
            return
          </CharString>
          <CharString index="288">
            -69 -87 597 callsubr
            -3 vvcurveto
            -7 333 callgsubr
            42 hlineto
            15 6 8 10 return
          </CharString>
          <CharString index="289">
            rmoveto
            123 callgsubr
            73 hlineto
            58 29 -34 -57 hvcurveto
            -377 336 rmoveto
            334 callgsubr
            -85 46 return
          </CharString>
          <CharString index="290">
            hlineto
            -58 -28 45 callgsubr
            7 vhcurveto
            return
          </CharString>
          <CharString index="291">
            -200 rlineto
            -15 -15 -22 -8 -30 hhcurveto
            return
          </CharString>
          <CharString index="292">
            hhcurveto
            199 callgsubr
            return
          </CharString>
          <CharString index="293">
            -3 -4 -7 vhcurveto
            return
          </CharString>
          <CharString index="294">
            hlineto
            494 callgsubr
            -101 callsubr
            -95 288 rmoveto
            -10 -105 callgsubr
            10 vhcurveto
            95 -101 callsubr
            endchar
          </CharString>
          <CharString index="295">
            rmoveto
            10 -4 3 -9 vhcurveto
            -43 126 callsubr
            -212 vlineto
            -10 6 662 callsubr
            2 vhcurveto
            34 95 rlineto
            8 599 callsubr
            return
          </CharString>
          <CharString index="296">
            5 8 6 -1 4 -3 9 hvcurveto
            -4 410 callgsubr
            35 268 callgsubr
            return
          </CharString>
          <CharString index="297">
            3 -8 vhcurveto
            -43 hlineto
            -9 -4 return
          </CharString>
          <CharString index="298">
            62 79 587 callgsubr
            246 hlineto
            91 57 55 93 hvcurveto
            347 297 callgsubr
            -246 690 callgsubr
            -565 rmoveto
            -7 -3 3 6 hvcurveto
            497 7 callsubr
            168 340 callgsubr
            -341 160 callgsubr
            return
          </CharString>
          <CharString index="299">
            265 callsubr
            -37 682 callsubr
            -47 vhcurveto
            -64 202 callgsubr
            81 vlineto
            59 28 32 58 vhcurveto
            161 502 callgsubr
            8 vhcurveto
            73 133 callsubr
          </CharString>
          <CharString index="300">
            6 681 callgsubr
            63 107 rlineto
            7 4 return
          </CharString>
          <CharString index="301">
            vlineto
            -89 353 callsubr
            return
          </CharString>
          <CharString index="302">
            vvcurveto
            34 268 callgsubr
            return
          </CharString>
          <CharString index="303">
            8 254 callsubr
            return
          </CharString>
          <CharString index="304">
            79 callsubr
            -37 vlineto
            -90 678 callsubr
            102 hlineto
            return
          </CharString>
          <CharString index="305">
            -6 callgsubr
            -48 707 callgsubr
            -40 vhcurveto
            -55 hlineto
            return
          </CharString>
          <CharString index="306">
            238 callsubr
            -97 hlineto
            return
          </CharString>
          <CharString index="307">
            265 callsubr
            -38 155 callsubr
            return
          </CharString>
          <CharString index="308">
            606 callgsubr
            -12 vlineto
            -60 return
          </CharString>
          <CharString index="309">
            hlineto
            280 callsubr
            return
          </CharString>
          <CharString index="310">
            26 -28 vhcurveto
            -9 7 6 -4 9 hhcurveto
            5 4 1 3 4 hvcurveto
            19 14 rlineto
            4 4 3 4 593 callgsubr
            7 vhcurveto
            -14 15 return
          </CharString>
          <CharString index="311">
            vhcurveto
            -36 hlineto
            -10 -5 return
          </CharString>
          <CharString index="312">
            9 291 callsubr
            return
          </CharString>
          <CharString index="313">
            vhcurveto
            132 -9 rlineto
            11 -1 3 6 9 vvcurveto
            39 vlineto
            9 -3 4 -11 -1 vhcurveto
            -133 -10 11 159 rlineto
            22 callsubr
            -45 hlineto
            -9 -6 -3 -11 1 hvcurveto
            11 -159 -131 10 rlineto
            -11 1 -3 -4 -9 vvcurveto
            -39 vlineto
            -9 3 -6 11 1 vhcurveto
            return
          </CharString>
          <CharString index="314">
            128 callsubr
            16 return
          </CharString>
          <CharString index="315">
            vhcurveto
            -201 97 callsubr
            -26 223 callsubr
          </CharString>
          <CharString index="316">
            -41 -14 -19 -34 -51 vvcurveto
            return
          </CharString>
          <CharString index="317">
            rmoveto
            -10 5 92 callsubr
            -5 -4 -10 hvcurveto
            -171 -101 rmoveto
            -10 5 92 callsubr
            215 callsubr
            endchar
          </CharString>
          <CharString index="318">
            rmoveto
            -10 273 callsubr
            -478 160 callgsubr
            -82 507 callsubr
            83 -62 callsubr
            -86 vlineto
            -93 57 -55 91 vhcurveto
            100 hlineto
            91 318 callsubr
            482 vlineto
            9 -4 4 -9 vhcurveto
            endchar
          </CharString>
          <CharString index="319">
            133 153 callgsubr
            return
          </CharString>
          <CharString index="320">
            -7 -3 -3 -8 679 callgsubr
            -83 -48 return
          </CharString>
          <CharString index="321">
            hvcurveto
            109 529 callsubr
            return
          </CharString>
          <CharString index="322">
            -5 -4 -10 hvcurveto
            return
          </CharString>
          <CharString index="323">
            -1 250 callsubr
            9 hhcurveto
            return
          </CharString>
          <CharString index="324">
            hlineto
            9 221 callsubr
            return
          </CharString>
          <CharString index="325">
            vhcurveto
            42 252 callsubr
            return
          </CharString>
          <CharString index="326">
            57 74 -30 62 hhcurveto
            30 29 6 9 22 hvcurveto
            16 6 5 6 12 vvcurveto
            31 vlineto
            7 -4 4 -6 vhcurveto
            -13 -32 -24 -45 -63 -68 30 -62 hhcurveto
            -30 -29 -6 -9 -22 hvcurveto
            -15 -6 -6 -6 -12 vvcurveto
            -31 vlineto
            -7 4 -4 7 vhcurveto
            13 32 24 44 hhcurveto
            return
          </CharString>
          <CharString index="327">
            460 callgsubr
            -4 -5 -7 -4 1 668 callsubr
            return
          </CharString>
          <CharString index="328">
            291 callsubr
            615 vlineto
            22 callsubr
            return
          </CharString>
          <CharString index="329">
            18 -28 callsubr
            return
          </CharString>
          <CharString index="330">
            124 callsubr
            endchar
          </CharString>
          <CharString index="331">
            326 callgsubr
            7 vhcurveto
            76 hlineto
            12 3 5 10 hvcurveto
            30 244 callsubr
          </CharString>
          <CharString index="332">
            311 callsubr
            10 407 callgsubr
            return
          </CharString>
          <CharString index="333">
            55 -100 callsubr
            -61 hlineto
            -94 -55 -56 -93 -1 hvcurveto
            -98 vlineto
            272 callsubr
            return
          </CharString>
          <CharString index="334">
            459 callgsubr
            8 648 callgsubr
            return
          </CharString>
          <CharString index="335">
            491 callsubr
            8 return
          </CharString>
          <CharString index="336">
            401 callsubr
            -14 454 callgsubr
            return
          </CharString>
          <CharString index="337">
            529 callsubr
            8 -46 callsubr
            return
          </CharString>
          <CharString index="338">
            302 callsubr
            5 return
          </CharString>
          <CharString index="339">
            301 callsubr
            vhcurveto
            return
          </CharString>
          <CharString index="340">
            826 rmoveto
            7 -5 -5 3 -10 59 callsubr
            34 hlineto
            7 4 2 6 2 hvcurveto
            48 130 callsubr
            645 callsubr
            return
          </CharString>
          <CharString index="341">
            474 callgsubr
            593 400 callgsubr
            -38 155 callsubr
            return
          </CharString>
          <CharString index="342">
            hhcurveto
            -34 hlineto
            -10 -5 -3 -7 -5 hvcurveto
            -64 467 callsubr
            2 -5 8 425 callsubr
            return
          </CharString>
          <CharString index="343">
            hlineto
            -69 callgsubr
            75 614 callsubr
            return
          </CharString>
          <CharString index="344">
            hlineto
            -66 callgsubr
            return
          </CharString>
          <CharString index="345">
            -98 callsubr
            -103 137 callgsubr
            return
          </CharString>
          <CharString index="346">
            516 callgsubr
            -3 -6 vhcurveto
            1 -10 -10 1 -12 hhcurveto
            return
          </CharString>
          <CharString index="347">
            -4 266 callgsubr
            4 return
          </CharString>
          <CharString index="348">
            vvcurveto
            11 vlineto
            12 -5 5 -10 vhcurveto
            -35 hlineto
            -9 -5 -5 -12 hvcurveto
            -10 vlineto
            -61 -32 -27 -59 vhcurveto
            -73 hlineto
            -59 -31 30 59 hvcurveto
            43 vlineto
            59 562 callgsubr
            139 hlineto
            19 16 11 24 142 callgsubr
            return
          </CharString>
          <CharString index="349">
            -98 callsubr
            -315 vlineto
            -54 -30 -37 -62 vhcurveto
            -35 hlineto
            -61 -29 32 59 hvcurveto
            83 vlineto
            59 31 32 60 495 callgsubr
            -1 hvcurveto
            -89 vlineto
            return
          </CharString>
          <CharString index="350">
            130 callsubr
            645 callsubr
            endchar
          </CharString>
          <CharString index="351">
            -33 callsubr
            endchar
          </CharString>
          <CharString index="352">
            rmoveto
            -10 4 240 callsubr
            10 hvcurveto
            97 vlineto
            10 -4 554 callgsubr
            return
          </CharString>
          <CharString index="353">
            331 callsubr
            5 hvcurveto
            78 720 callsubr
            return
          </CharString>
          <CharString index="354">
            367 callgsubr
            -4 9 vhcurveto
            42 hlineto
            10 5 4 11 hvcurveto
            return
          </CharString>
          <CharString index="355">
            4 12 -7 hvcurveto
            -146 428 callgsubr
            return
          </CharString>
          <CharString index="356">
            -5 -5 3 callsubr
            return
          </CharString>
          <CharString index="357">
            -5 -7 4 hvcurveto
            63 -107 rlineto
            -7 5 6 -3 return
          </CharString>
          <CharString index="358">
            5 478 callgsubr
            return
          </CharString>
          <CharString index="359">
            hlineto
            9 -38 callsubr
            return
          </CharString>
          <CharString index="360">
            -9 273 callsubr
            return
          </CharString>
          <CharString index="361">
            4 -1 4 -2 return
          </CharString>
          <CharString index="362">
            -102 rlineto
            -9 -5 2 -5 9 hhcurveto
            33 hlineto
            7 7 149 callsubr
            -9 hhcurveto
            endchar
          </CharString>
          <CharString index="363">
            -16 -37 -37 vhcurveto
            -52 -47 419 callgsubr
            7 5 7 7 hvcurveto
            return
          </CharString>
          <CharString index="364">
            88 callgsubr
            60 31 -26 return
          </CharString>
          <CharString index="365">
            -18 -11 -13 -17 hvcurveto
            return
          </CharString>
          <CharString index="366">
            vlineto
            46 23 25 45 vhcurveto
            63 722 callgsubr
            10 hvcurveto
            32 370 callgsubr
            -45 -23 24 45 536 callgsubr
            21 -100 callsubr
            return
          </CharString>
          <CharString index="367">
            -96 callgsubr
            -163 -4 vlineto
            28 -18 -34 15 -48 hhcurveto
            220 callgsubr
            60 31 -26 return
          </CharString>
          <CharString index="368">
            -67 callsubr
            endchar
          </CharString>
          <CharString index="369">
            -60 -19 32 55 55 19 32 60 60 19 -32 -55 return
          </CharString>
          <CharString index="370">
            193 callsubr
            -1 5 return
          </CharString>
          <CharString index="371">
            -6 4 vhcurveto
            -14 12 rlineto
            5 -6 619 callsubr
            return
          </CharString>
          <CharString index="372">
            vlineto
            302 callgsubr
            return
          </CharString>
          <CharString index="373">
            vlineto
            9 -4 5 -11 vhcurveto
            return
          </CharString>
          <CharString index="374">
            -5 6 -11 vhcurveto
            return
          </CharString>
          <CharString index="375">
            5 4 12 hvcurveto
            return
          </CharString>
          <CharString index="376">
            76 callgsubr
            8 vhcurveto
            75 hlineto
            12 3 5 10 hvcurveto
            30 244 callsubr
          </CharString>
          <CharString index="377">
            hlineto
            -237 -273 rlineto
            -4 -3 -1 -4 -4 713 callgsubr
            4 8 6 hvcurveto
            191 228 rlineto
            16 19 4 15 34 vvcurveto
            1 vlineto
            -21 callsubr
            endchar
          </CharString>
          <CharString index="378">
            hlineto
            77 callgsubr
            return
          </CharString>
          <CharString index="379">
            -94 58 -55 93 vhcurveto
            return
          </CharString>
          <CharString index="380">
            -4 -4 -10 hvcurveto
            return
          </CharString>
          <CharString index="381">
            vvcurveto
            -28 12 -27 26 584 callsubr
            5 2 3 584 callgsubr
            5 vvcurveto
            5 -1 3 -5 6 vhcurveto
            -16 18 -9 12 22 vvcurveto
            21 13 14 26 14 vhcurveto
            return
          </CharString>
          <CharString index="382">
            218 callgsubr
            -34 hlineto
            -7 return
          </CharString>
          <CharString index="383">
            657 callgsubr
            -8 vhcurveto
            -134 hlineto
            return
          </CharString>
          <CharString index="384">
            -58 callgsubr
            -4 return
          </CharString>
          <CharString index="385">
            vlineto
            259 callgsubr
            return
          </CharString>
          <CharString index="386">
            rmoveto
            508 callsubr
            return
          </CharString>
          <CharString index="387">
            -9 -4 -3 -11 hvcurveto
            return
          </CharString>
          <CharString index="388">
            341 callgsubr
            323 hlineto
            12 3 5 10 hvcurveto
            30 -33 callsubr
            -753 623 callsubr
            341 -98 callsubr
            return
          </CharString>
          <CharString index="389">
            400 callgsubr
            -75 hlineto
            -15 -8 -5 -9 -12 hvcurveto
            -152 -118 rlineto
            255 529 callsubr
            8 vhcurveto
            341 hlineto
            12 3 5 10 hvcurveto
            30 244 callsubr
          </CharString>
          <CharString index="390">
            hhcurveto
            -90 299 callgsubr
            return
          </CharString>
          <CharString index="391">
            11 38 hvcurveto
            26 vlineto
            8 312 callsubr
            -8 hvcurveto
            -39 vlineto
            -48 13 -29 50 return
          </CharString>
          <CharString index="392">
            190 callgsubr
            -4 16 return
          </CharString>
          <CharString index="393">
            544 callsubr
            -38 604 callgsubr
            -46 vhcurveto
            return
          </CharString>
          <CharString index="394">
            339 callgsubr
            75 hlineto
            50 35 -22 return
          </CharString>
          <CharString index="395">
            -3 350 callsubr
            return
          </CharString>
          <CharString index="396">
            673 callgsubr
            -80 return
          </CharString>
          <CharString index="397">
            -6 -4 3 8 hvcurveto
            return
          </CharString>
          <CharString index="398">
            5 3 11 hvcurveto
            return
          </CharString>
          <CharString index="399">
            -89 vlineto
            -94 58 -55 92 vhcurveto
            35 hlineto
            46 35 426 callgsubr
            9 vhcurveto
            38 -26 callgsubr
            537 529 callsubr
            8 vhcurveto
            75 hlineto
            11 return
          </CharString>
          <CharString index="400">
            -89 hlineto
            33 callgsubr
            return
          </CharString>
          <CharString index="401">
            hlineto
            -59 -32 32 59 hvcurveto
            56 vlineto
            59 28 30 59 vhcurveto
            138 hlineto
            return
          </CharString>
          <CharString index="402">
            304 callgsubr
            -92 vhcurveto
            return
          </CharString>
          <CharString index="403">
            vvcurveto
            -6 333 callgsubr
            return
          </CharString>
          <CharString index="404">
            -3 4 7 hvcurveto
            return
          </CharString>
          <CharString index="405">
            -5 5 -11 vhcurveto
            return
          </CharString>
          <CharString index="406">
            rmoveto
            33 callgsubr
            return
          </CharString>
          <CharString index="407">
            vvcurveto
            29 vlineto
            13 298 callsubr
            -35 hlineto
            -9 -5 -5 -13 hvcurveto
            -29 vlineto
            -60 -32 -28 -58 vhcurveto
            return
          </CharString>
          <CharString index="408">
            vlineto
            -7 -3 -3 -8 return
          </CharString>
          <CharString index="409">
            9 hhcurveto
            29 hlineto
            9 return
          </CharString>
          <CharString index="410">
            5 -5 9 hhcurveto
            return
          </CharString>
          <CharString index="411">
            -10 -8 324 callgsubr
            -48 vhcurveto
            -62 hlineto
            -49 -18 633 callsubr
            -5 388 callsubr
            return
          </CharString>
          <CharString index="412">
            -54 -23 -17 -54 vhcurveto
            -64 hlineto
            -56 -20 17 46 hvcurveto
            11 vlineto
            701 callsubr
            29 722 callgsubr
            10 hvcurveto
            30 104 callgsubr
            -29 hlineto
            -48 -20 17 42 hvcurveto
            return
          </CharString>
          <CharString index="413">
            33 -32 -59 hvcurveto
            return
          </CharString>
          <CharString index="414">
            vhcurveto
            -28 hlineto
            -10 -7 324 callgsubr
            -49 vhcurveto
            return
          </CharString>
          <CharString index="415">
            vlineto
            -43 18 -28 34 -14 vhcurveto
            -4 vlineto
            -35 -15 -17 -31 -42 vvcurveto
            return
          </CharString>
          <CharString index="416">
            rmoveto
            -57 callgsubr
            return
          </CharString>
          <CharString index="417">
            51 523 callgsubr
            return
          </CharString>
          <CharString index="418">
            32 19 709 callsubr
            -129 hlineto
            -11 5 -5 return
          </CharString>
          <CharString index="419">
            -2 2 -7 vhcurveto
            -21 hlineto
            -6 -3 -2 return
          </CharString>
          <CharString index="420">
            -2 436 callsubr
            return
          </CharString>
          <CharString index="421">
            229 callgsubr
            5 return
          </CharString>
          <CharString index="422">
            vlineto
            -19 callsubr
            return
          </CharString>
          <CharString index="423">
            vlineto
            450 callsubr
            return
          </CharString>
          <CharString index="424">
            vlineto
            -10 3 -5 12 vhcurveto
            return
          </CharString>
          <CharString index="425">
            56 55 93 hvcurveto
            return
          </CharString>
          <CharString index="426">
            30 711 callgsubr
            28 22 45 517 callsubr
            -39 -77 hvcurveto
            -55 vlineto
            return
          </CharString>
          <CharString index="427">
            235 73 callgsubr
            return
          </CharString>
          <CharString index="428">
            -101 581 callgsubr
            59 55 93 hvcurveto
            106 callgsubr
            return
          </CharString>
          <CharString index="429">
            -102 rlineto
            -9 -5 3 646 callgsubr
            return
          </CharString>
          <CharString index="430">
            rmoveto
            -47 -34 -17 -27 -13 hvcurveto
            -4 return
          </CharString>
          <CharString index="431">
            -151 373 callsubr
            return
          </CharString>
          <CharString index="432">
            vlineto
            -11 6 -5 9 8 vhcurveto
            140 128 rlineto
            10 8 4 4 15 vvcurveto
            26 vlineto
            14 -5 4 -9 8 vhcurveto
            -140 128 rlineto
            -9 8 -6 -5 -10 vvcurveto
            return
          </CharString>
          <CharString index="433">
            hlineto
            -14 callsubr
            return
          </CharString>
          <CharString index="434">
            hlineto
            -60 -62 callgsubr
            -94 -55 538 callgsubr
            return
          </CharString>
          <CharString index="435">
            hlineto
            -11 5 29 callgsubr
            38 hlineto
            10 5 4 11 hvcurveto
            538 529 callsubr
            8 vhcurveto
            75 133 callsubr
          </CharString>
          <CharString index="436">
            503 callsubr
            -11 -5 -5 -13 hvcurveto
            -7 vlineto
            -96 return
          </CharString>
          <CharString index="437">
            -5 9 hhcurveto
            33 hlineto
            7 610 callsubr
            return
          </CharString>
          <CharString index="438">
            278 callgsubr
            -5 3 -5 9 hhcurveto
            23 hlineto
            7 6 4 6 return
          </CharString>
          <CharString index="439">
            -3 -5 -9 hvcurveto
            return
          </CharString>
          <CharString index="440">
            -93 vhcurveto
            -30 hlineto
            return
          </CharString>
          <CharString index="441">
            444 callsubr
            -3 4 -5 6 vhcurveto
            -14 16 -8 13 20 vvcurveto
            return
          </CharString>
          <CharString index="442">
            130 callgsubr
            endchar
          </CharString>
          <CharString index="443">
            vlineto
            6 555 callsubr
            -6 hvcurveto
            return
          </CharString>
          <CharString index="444">
            -86 callgsubr
            -160 47 callsubr
            -174 hlineto
            return
          </CharString>
          <CharString index="445">
            34 34 72 hvcurveto
            12 vlineto
            8 -4 2 -7 vhcurveto
            -26 hlineto
            -7 return
          </CharString>
          <CharString index="446">
            vlineto
            51 21 26 50 vhcurveto
            return
          </CharString>
          <CharString index="447">
            vlineto
            -40 callgsubr
            return
          </CharString>
          <CharString index="448">
            vlineto
            -78 619 callgsubr
            return
          </CharString>
          <CharString index="449">
            vlineto
            59 29 32 return
          </CharString>
          <CharString index="450">
            3 5 10 hvcurveto
            return
          </CharString>
          <CharString index="451">
            -494 623 vmoveto
            74 vlineto
            53 30 22 46 vhcurveto
            20 -101 callsubr
            -28 hlineto
            -86 -50 -47 -87 hvcurveto
            -75 vlineto
            return
          </CharString>
          <CharString index="452">
            406 callgsubr
            32 hlineto
            8 610 callsubr
            endchar
          </CharString>
          <CharString index="453">
            359 callgsubr
            8 7 4 6 5 661 callsubr
          </CharString>
          <CharString index="454">
            -11 -8 -104 callsubr
            8 -5 11 vhcurveto
            67 -98 callsubr
            return
          </CharString>
          <CharString index="455">
            -69 callgsubr
            67 -25 callgsubr
            return
          </CharString>
          <CharString index="456">
            vhcurveto
            32 hlineto
            59 306 callsubr
            -81 vlineto
            -59 return
          </CharString>
          <CharString index="457">
            -3 296 callsubr
            return
          </CharString>
          <CharString index="458">
            -58 255 callgsubr
            return
          </CharString>
          <CharString index="459">
            -54 -29 -36 -62 vhcurveto
            return
          </CharString>
          <CharString index="460">
            58 -55 88 vhcurveto
            return
          </CharString>
          <CharString index="461">
            -14 -28 vhcurveto
            9 -33 rmoveto
            42 26 25 43 hvcurveto
            41 vlineto
            42 -26 24 -42 vhcurveto
            -31 hlineto
            -42 -24 -24 -42 hvcurveto
            -41 vlineto
            -43 24 -25 42 vhcurveto
            endchar
          </CharString>
          <CharString index="462">
            5 9 -5 hvcurveto
            endchar
          </CharString>
          <CharString index="463">
            324 callgsubr
            -49 vhcurveto
            -62 485 callgsubr
            return
          </CharString>
          <CharString index="464">
            471 415 callsubr
            -458 -67 callsubr
            458 538 callsubr
            return
          </CharString>
          <CharString index="465">
            -4 hlineto
            32 -15 -40 21 -51 hhcurveto
            -52 hlineto
            706 callsubr
            -114 vlineto
            -93 56 -55 92 vhcurveto
            80 hlineto
            91 318 callsubr
            188 vlineto
            return
          </CharString>
          <CharString index="466">
            21 vhcurveto
            4 vlineto
            31 17 16 33 48 vvcurveto
            134 529 callsubr
            7 vhcurveto
            return
          </CharString>
          <CharString index="467">
            397 callsubr
            268 callsubr
            30 vlineto
            63 return
          </CharString>
          <CharString index="468">
            677 callsubr
            18 113 callsubr
            return
          </CharString>
          <CharString index="469">
            vlineto
            12 -5 6 -10 vhcurveto
            -35 hlineto
            -9 -6 -6 -12 hvcurveto
            return
          </CharString>
          <CharString index="470">
            rmoveto
            12 3 5 10 hvcurveto
            30 -33 callsubr
            return
          </CharString>
          <CharString index="471">
            264 callsubr
            -6 return
          </CharString>
          <CharString index="472">
            vlineto
            -104 callgsubr
            return
          </CharString>
          <CharString index="473">
            11 hvcurveto
            42 vlineto
            11 291 callgsubr
            return
          </CharString>
          <CharString index="474">
            -4 vlineto
            -37 -16 -27 -32 -67 vvcurveto
            return
          </CharString>
          <CharString index="475">
            4 392 callgsubr
            return
          </CharString>
          <CharString index="476">
            hlineto
            54 40 20 34 18 hvcurveto
            4 return
          </CharString>
          <CharString index="477">
            vlineto
            377 callsubr
            return
          </CharString>
          <CharString index="478">
            vlineto
            -9 4 -5 10 vhcurveto
            return
          </CharString>
          <CharString index="479">
            hlineto
            451 callgsubr
            return
          </CharString>
          <CharString index="480">
            rmoveto
            120 callsubr
            return
          </CharString>
          <CharString index="481">
            hlineto
            -47 -25 20 48 hvcurveto
            return
          </CharString>
          <CharString index="482">
            -90 492 callgsubr
            return
          </CharString>
          <CharString index="483">
            vhcurveto
            46 hlineto
            9 4 return
          </CharString>
          <CharString index="484">
            9 452 callsubr
            return
          </CharString>
          <CharString index="485">
            5 23 hhcurveto
            226 callsubr
            return
          </CharString>
          <CharString index="486">
            -2 -6 -2 hvcurveto
            -48 418 callgsubr
            return
          </CharString>
          <CharString index="487">
            -56 -55 -93 hvcurveto
            return
          </CharString>
          <CharString index="488">
            rlineto
            -20 -15 2 -34 32 hhcurveto
            35 42 15 19 1 hvcurveto
            10 2 -5 3 -19 hhcurveto
            -1 -7 -23 -1 -11 hhcurveto
            -2 32 46 23 17 hvcurveto
            return
          </CharString>
          <CharString index="489">
            hlineto
            -80 -49 -35 -77 hvcurveto
            -10 vlineto
            -78 620 callsubr
            141 hlineto
            47 510 callsubr
            -30 vlineto
            -44 -20 -16 -47 vhcurveto
            -135 hlineto
            return
          </CharString>
          <CharString index="490">
            725 rmoveto
            -10 5 240 callsubr
            10 hvcurveto
            97 vlineto
            10 -5 4 -8 vhcurveto
            -46 126 callsubr
            endchar
          </CharString>
          <CharString index="491">
            262 callsubr
            -55 -19 -32 -60 hvcurveto
            return
          </CharString>
          <CharString index="492">
            26 65 hvcurveto
            103 -12 callgsubr
            -63 vhcurveto
            -80 vlineto
            -11 return
          </CharString>
          <CharString index="493">
            -5 10 480 callsubr
            return
          </CharString>
          <CharString index="494">
            0 24 1 3 rrcurveto
            -20 callgsubr
            8 vhcurveto
            return
          </CharString>
          <CharString index="495">
            -6 724 callgsubr
            -81 40 -43 79 vhcurveto
            return
          </CharString>
          <CharString index="496">
            hlineto
            -7 callgsubr
            hvcurveto
            -479 -4 vlineto
            return
          </CharString>
          <CharString index="497">
            268 callgsubr
            153 hlineto
            7 3 -4 return
          </CharString>
          <CharString index="498">
            680 callgsubr
            8 7 hvcurveto
            return
          </CharString>
          <CharString index="499">
            1 5 7 -4 hvcurveto
            return
          </CharString>
          <CharString index="500">
            20 17 38 vhcurveto
            return
          </CharString>
          <CharString index="501">
            -4 hlineto
            83 callgsubr
            return
          </CharString>
          <CharString index="502">
            645 callgsubr
            38 465 callsubr
            return
          </CharString>
          <CharString index="503">
            -88 54 -78 114 vhcurveto
            return
          </CharString>
          <CharString index="504">
            29 callgsubr
            39 hlineto
            9 return
          </CharString>
          <CharString index="505">
            vlineto
            -11 5 -4 9 vhcurveto
            return
          </CharString>
          <CharString index="506">
            22 50 vhcurveto
            127 hlineto
            return
          </CharString>
          <CharString index="507">
            190 rmoveto
            123 callgsubr
            73 hlineto
            58 29 -34 -57 hvcurveto
            return
          </CharString>
          <CharString index="508">
            486 callsubr
            692 callsubr
            return
          </CharString>
          <CharString index="509">
            rmoveto
            -10 721 callsubr
            46 433 callgsubr
            98 vlineto
            10 -6 3 -8 477 callgsubr
            endchar
          </CharString>
          <CharString index="510">
            hlineto
            59 25 -22 -63 hvcurveto
            -30 vlineto
            -12 5 -4 9 685 callgsubr
            -53 546 callsubr
          </CharString>
          <CharString index="511">
            hlineto
            59 25 -22 -63 hvcurveto
            -30 vlineto
            -12 6 521 callsubr
          </CharString>
          <CharString index="512">
            15 16 vvcurveto
            34 499 callsubr
            return
          </CharString>
          <CharString index="513">
            -98 callsubr
            -79 vlineto
            -7 -4 673 callgsubr
            return
          </CharString>
          <CharString index="514">
            66 hvcurveto
            102 -12 callgsubr
            -62 vhcurveto
            -81 vlineto
            -11 return
          </CharString>
          <CharString index="515">
            hlineto
            9 5 4 10 return
          </CharString>
          <CharString index="516">
            10 4 5 9 hvcurveto
            return
          </CharString>
          <CharString index="517">
            vhcurveto
            45 hlineto
            9 return
          </CharString>
          <CharString index="518">
            0 -39 -21 -57 -43 vhcurveto
            -67 -52 rlineto
            -5 -5 -2 -3 -5 vvcurveto
            -5 333 callgsubr
            57 hlineto
            10 8 5 5 7 hvcurveto
            return
          </CharString>
          <CharString index="519">
            338 callsubr
            607 callgsubr
            return
          </CharString>
          <CharString index="520">
            -17 -5 -8 -14 hhcurveto
            -20 -5 11 return
          </CharString>
          <CharString index="521">
            4 hvcurveto
            18 13 rlineto
            6 5 2 return
          </CharString>
          <CharString index="522">
            722 callsubr
            -4 5 -12 vhcurveto
            return
          </CharString>
          <CharString index="523">
            451 callsubr
            -10 272 callgsubr
            6 vhcurveto
            22 hlineto
            6 526 callgsubr
            -14 29 return
          </CharString>
          <CharString index="524">
            508 callsubr
            -51 296 callgsubr
            -119 629 callgsubr
            return
          </CharString>
          <CharString index="525">
            rmoveto
            -75 -37 -38 -76 hvcurveto
            -70 vlineto
            -77 37 -38 75 vhcurveto
            35 hlineto
            76 36 38 77 hvcurveto
            70 vlineto
            76 -36 38 -76 vhcurveto
            return
          </CharString>
          <CharString index="526">
            268 472 callsubr
            return
          </CharString>
          <CharString index="527">
            244 rmoveto
            -63 -38 -52 -77 vhcurveto
            -41 hlineto
            -71 -35 29 73 hvcurveto
            return
          </CharString>
          <CharString index="528">
            vlineto
            90 -51 42 -87 -89 492 callgsubr
            427 131 rmoveto
            return
          </CharString>
          <CharString index="529">
            -18 -16 9 -26 24 hhcurveto
            16 hlineto
            39 12 698 callgsubr
            return
          </CharString>
          <CharString index="530">
            hlineto
            -8 -5 -5 -7 -4 1 -3 3 -4 hvcurveto
            return
          </CharString>
          <CharString index="531">
            -30 -16 -13 -34 -41 vvcurveto
            -38 vlineto
            -94 56 -54 return
          </CharString>
          <CharString index="532">
            431 callsubr
            3 hvcurveto
            47 88 return
          </CharString>
          <CharString index="533">
            10 hvcurveto
            31 104 callgsubr
            return
          </CharString>
          <CharString index="534">
            215 callsubr
            -48 vlineto
            -10 5 -5 return
          </CharString>
          <CharString index="535">
            -9 477 callgsubr
            return
          </CharString>
          <CharString index="536">
            vlineto
            -50 -15 -20 -50 vhcurveto
            -19 hlineto
            -51 return
          </CharString>
          <CharString index="537">
            205 callsubr
            479 4 vlineto
            return
          </CharString>
          <CharString index="538">
            hhcurveto
            34 hlineto
            7 4 2 6 return
          </CharString>
          <CharString index="539">
            hhcurveto
            -30 hlineto
            -46 -34 -17 return
          </CharString>
          <CharString index="540">
            hlineto
            -7 -4 -3 -8 hvcurveto
            return
          </CharString>
          <CharString index="541">
            vlineto
            -10 4 -5 9 vhcurveto
            return
          </CharString>
          <CharString index="542">
            rmoveto
            -96 callgsubr
            return
          </CharString>
          <CharString index="543">
            -8 hvcurveto
            -10 vlineto
            -49 return
          </CharString>
          <CharString index="544">
            hlineto
            46 35 15 29 return
          </CharString>
          <CharString index="545">
            574 callgsubr
            -15 20 50 hvcurveto
            65 vlineto
            51 15 19 51 vhcurveto
            return
          </CharString>
          <CharString index="546">
            215 rmoveto
            -62 -38 -53 -78 vhcurveto
            -40 hlineto
            -72 -34 29 74 hvcurveto
            15 hlineto
            78 59 30 92 79 -51 40 -86 hvcurveto
            return
          </CharString>
          <CharString index="547">
            -59 -31 -34 -60 vhcurveto
            -67 hlineto
            -59 -31 34 59 hvcurveto
            44 342 callsubr
            59 vhcurveto
            72 hlineto
            58 30 -34 -57 hvcurveto
            return
          </CharString>
          <CharString index="548">
            -5 -4 -11 hvcurveto
            return
          </CharString>
          <CharString index="549">
            532 callgsubr
            32 595 callgsubr
            return
          </CharString>
          <CharString index="550">
            -96 callsubr
            -296 vlineto
            -11 5 29 callgsubr
            38 hlineto
            10 5 4 11 hvcurveto
            538 529 callsubr
            return
          </CharString>
          <CharString index="551">
            27 337 callgsubr
            18 14 rlineto
            5 543 callsubr
            return
          </CharString>
          <CharString index="552">
            2 6 2 hvcurveto
            48 335 callsubr
          </CharString>
          <CharString index="553">
            hlineto
            7 2 687 callsubr
            return
          </CharString>
          <CharString index="554">
            hlineto
            19 15 11 24 214 callsubr
            8 vhcurveto
            return
          </CharString>
          <CharString index="555">
            vlineto
            -6 656 callgsubr
            return
          </CharString>
          <CharString index="556">
            rmoveto
            471 callgsubr
            return
          </CharString>
          <CharString index="557">
            66 35 22 50 vhcurveto
            return
          </CharString>
          <CharString index="558">
            8 16 hhcurveto
            20 5 return
          </CharString>
          <CharString index="559">
            -4 5 -10 vhcurveto
            return
          </CharString>
          <CharString index="560">
            rmoveto
            -11 5 -4 11 vhcurveto
            37 hlineto
            9 6 139 callgsubr
            51 51 19 -21 -51 vhcurveto
            return
          </CharString>
          <CharString index="561">
            194 callgsubr
            -49 17 -31 43 -15 vhcurveto
            -4 vlineto
            209 callsubr
            return
          </CharString>
          <CharString index="562">
            hhcurveto
            29 hlineto
            9 4 5 8 5 -1 5 -3 9 hvcurveto
            -4 15 -4 15 16 195 callsubr
            return
          </CharString>
          <CharString index="563">
            314 callgsubr
            -4 3 -7 vhcurveto
            return
          </CharString>
          <CharString index="564">
            14 41 hvcurveto
            6 vlineto
            42 18 16 48 vhcurveto
            return
          </CharString>
          <CharString index="565">
            482 callsubr
            5 7 -4 7 hhcurveto
            return
          </CharString>
          <CharString index="566">
            -6 callgsubr
            -134 vlineto
            -48 return
          </CharString>
          <CharString index="567">
            333 callgsubr
            45 hlineto
            11 6 4 8 return
          </CharString>
          <CharString index="568">
            rmoveto
            205 callsubr
            return
          </CharString>
          <CharString index="569">
            hlineto
            254 callgsubr
            return
          </CharString>
          <CharString index="570">
            hlineto
            14 12 3 0 hvcurveto
            return
          </CharString>
          <CharString index="571">
            hvcurveto
            229 callgsubr
            return
          </CharString>
          <CharString index="572">
            572 callsubr
            12 hvcurveto
            return
          </CharString>
          <CharString index="573">
            3 5 9 hvcurveto
            return
          </CharString>
          <CharString index="574">
            -107 rlineto
            -7 -4 return
          </CharString>
          <CharString index="575">
            vvcurveto
            -125 vlineto
            -20 callsubr
            return
          </CharString>
          <CharString index="576">
            -31 callsubr
            -14 27 -22 13 vhcurveto
            4 168 vlineto
            return
          </CharString>
          <CharString index="577">
            97 callsubr
            -36 124 callsubr
            return
          </CharString>
          <CharString index="578">
            hlineto
            47 36 588 callsubr
            -25 -27 -58 vhcurveto
            return
          </CharString>
          <CharString index="579">
            rmoveto
            -69 -38 -44 -78 vhcurveto
            -63 hlineto
            -75 -38 41 69 hvcurveto
            return
          </CharString>
          <CharString index="580">
            -98 callsubr
            -79 137 callgsubr
            return
          </CharString>
          <CharString index="581">
            258 callsubr
            -321 vlineto
            -62 -38 -52 -77 vhcurveto
            return
          </CharString>
          <CharString index="582">
            vlineto
            -12 5 176 callsubr
            12 hvcurveto
            return
          </CharString>
          <CharString index="583">
            4 -9 vhcurveto
            -45 126 callsubr
            -86 vlineto
            -6 return
          </CharString>
          <CharString index="584">
            155 callsubr
            -20 vlineto
            return
          </CharString>
          <CharString index="585">
            155 callsubr
            -29 vlineto
            return
          </CharString>
          <CharString index="586">
            hlineto
            -11 -4 -76 callsubr
            -32 vlineto
            return
          </CharString>
          <CharString index="587">
            vhcurveto
            37 -26 callgsubr
            return
          </CharString>
          <CharString index="588">
            434 callgsubr
            -99 hlineto
            return
          </CharString>
          <CharString index="589">
            hvcurveto
            87 -105 rlineto
            -6 return
          </CharString>
          <CharString index="590">
            6 453 callgsubr
            return
          </CharString>
          <CharString index="591">
            hlineto
            348 callgsubr
            183 return
          </CharString>
          <CharString index="592">
            -144 58 callgsubr
            return
          </CharString>
          <CharString index="593">
            -72 33 -34 62 vhcurveto
            18 563 callsubr
            return
          </CharString>
          <CharString index="594">
            75 callgsubr
            -12 hlineto
            -53 709 callgsubr
            return
          </CharString>
          <CharString index="595">
            hlineto
            168 callsubr
            return
          </CharString>
          <CharString index="596">
            494 callsubr
            vlineto
            return
          </CharString>
          <CharString index="597">
            199 callsubr
            560 callgsubr
            -101 vlineto
            return
          </CharString>
          <CharString index="598">
            -60 -23 4 -25 return
          </CharString>
          <CharString index="599">
            -4 -5 -9 hvcurveto
            return
          </CharString>
          <CharString index="600">
            -98 callsubr
            -300 vlineto
            -60 -34 -34 -59 vhcurveto
            -67 hlineto
            -59 -31 31 59 hvcurveto
            return
          </CharString>
          <CharString index="601">
            -42 callgsubr
            -44 return
          </CharString>
          <CharString index="602">
            -97 hlineto
            10 callgsubr
            return
          </CharString>
          <CharString index="603">
            4 6 624 callsubr
            20 11 17 21 15 vhcurveto
            return
          </CharString>
          <CharString index="604">
            12 4 5 10 hvcurveto
            32 -16 callsubr
            return
          </CharString>
          <CharString index="605">
            678 callgsubr
            144 180 callsubr
            return
          </CharString>
          <CharString index="606">
            711 callsubr
            -6 hvcurveto
            return
          </CharString>
          <CharString index="607">
            -62 -38 -53 -77 vhcurveto
            -41 hlineto
            -71 -35 30 73 hvcurveto
            return
          </CharString>
          <CharString index="608">
            -28 -13 -9 -35 -17 vhcurveto
            -37 -17 -5 -8 -13 hhcurveto
            return
          </CharString>
          <CharString index="609">
            8 695 callsubr
            6 hvcurveto
            4 4 return
          </CharString>
          <CharString index="610">
            665 callsubr
            438 callgsubr
            -35 hlineto
            return
          </CharString>
          <CharString index="611">
            267 callgsubr
            37 vlineto
            9 return
          </CharString>
          <CharString index="612">
            303 callgsubr
            87 105 rlineto
            8 return
          </CharString>
          <CharString index="613">
            -4 hlineto
            -30 -16 -13 -34 return
          </CharString>
          <CharString index="614">
            hlineto
            -56 -28 31 56 hvcurveto
            return
          </CharString>
          <CharString index="615">
            10 573 callgsubr
            return
          </CharString>
          <CharString index="616">
            56 56 93 hvcurveto
            return
          </CharString>
          <CharString index="617">
            20 -14 -46 hvcurveto
            return
          </CharString>
          <CharString index="618">
            -85 callsubr
            323 hlineto
            7 return
          </CharString>
          <CharString index="619">
            4 -9 vhcurveto
            -33 364 callgsubr
            33 hlineto
            10 return
          </CharString>
          <CharString index="620">
            24 -14 -28 578 callgsubr
            -58 hhcurveto
            return
          </CharString>
          <CharString index="621">
            576 callsubr
            10 5 5 11 hvcurveto
            return
          </CharString>
          <CharString index="622">
            hlineto
            -8 215 callsubr
            endchar
          </CharString>
          <CharString index="623">
            -35 20 67 hvcurveto
            return
          </CharString>
          <CharString index="624">
            vhcurveto
            23 -53 callgsubr
            -30 hlineto
            -74 -48 return
          </CharString>
          <CharString index="625" raw="1">
            2a064e0a 0b  
          </CharString>
          <CharString index="626">
            576 callgsubr
            -321 vlineto
            -62 return
          </CharString>
          <CharString index="627">
            hvcurveto
            -28 -73 -203 -466 -28 -73 rrcurveto
            -12 -5 5 -4 302 callsubr
            return
          </CharString>
          <CharString index="628">
            -4 9 vhcurveto
            38 hlineto
            11 5 661 callgsubr
          </CharString>
          <CharString index="629">
            hlineto
            6 2 415 callgsubr
            return
          </CharString>
          <CharString index="630" raw="1">
            d1158051 1d0b  
          </CharString>
          <CharString index="631">
            hlineto
            8 3 355 callsubr
          </CharString>
          <CharString index="632">
            hlineto
            7 483 callsubr
            return
          </CharString>
          <CharString index="633">
            -7 606 callsubr
            return
          </CharString>
          <CharString index="634">
            -2 -5 -7 4 hvcurveto
            return
          </CharString>
          <CharString index="635">
            27 -21 -65 vhcurveto
            return
          </CharString>
          <CharString index="636">
            vlineto
            -20 callgsubr
            return
          </CharString>
          <CharString index="637">
            212 142 rmoveto
            -60 -30 509 callgsubr
            14 2 12 3 11 vhcurveto
            return
          </CharString>
          <CharString index="638">
            211 564 callgsubr
            return
          </CharString>
          <CharString index="639">
            rmoveto
            138 callsubr
            5 139 callgsubr
            return
          </CharString>
          <CharString index="640">
            4 3 4 593 callgsubr
            7 vhcurveto
            -14 15 -8 13 20 vvcurveto
            19 return
          </CharString>
          <CharString index="641">
            rmoveto
            204 callgsubr
            -184 hlineto
            704 callgsubr
            207 vlineto
            6 return
          </CharString>
          <CharString index="642">
            hhcurveto
            33 hlineto
            9 2 355 callsubr
          </CharString>
          <CharString index="643">
            527 callgsubr
            -134 hlineto
            return
          </CharString>
          <CharString index="644" raw="1">
            f7d5851d 0b  
          </CharString>
          <CharString index="645">
            hlineto
            12 4 5 10 hvcurveto
            return
          </CharString>
          <CharString index="646">
            vlineto
            10 380 callgsubr
            return
          </CharString>
          <CharString index="647" raw="1">
            8ff7d31d 950b  
          </CharString>
          <CharString index="648">
            rmoveto
            41 callsubr
            return
          </CharString>
          <CharString index="649">
            vlineto
            527 callgsubr
            return
          </CharString>
          <CharString index="650">
            3 3 5 5 vvcurveto
            6 return
          </CharString>
          <CharString index="651">
            hlineto
            46 510 callsubr
            return
          </CharString>
          <CharString index="652">
            45 -16 -39 19 return
          </CharString>
          <CharString index="653">
            50 -100 vhcurveto
            endchar
          </CharString>
          <CharString index="654">
            -107 callgsubr
            314 hlineto
            7 3 return
          </CharString>
          <CharString index="655">
            215 64 rmoveto
            38 callgsubr
            208 53 callsubr
            return
          </CharString>
          <CharString index="656">
            -35 callgsubr
            -12 hlineto
            -53 return
          </CharString>
          <CharString index="657">
            4 -15 hhcurveto
            -36 423 callsubr
            60 -87 return
          </CharString>
          <CharString index="658">
            vhcurveto
            94 -101 callsubr
            endchar
          </CharString>
          <CharString index="659">
            hlineto
            -7 callgsubr
            hvcurveto
            -340 vlineto
            -58 return
          </CharString>
          <CharString index="660">
            hlineto
            -11 6 -4 9 vhcurveto
            38 hlineto
            10 5 return
          </CharString>
          <CharString index="661">
            -1 vlineto
            0 703 callgsubr
            -1 vlineto
            return
          </CharString>
          <CharString index="662">
            3 4 8 vhcurveto
            183 hlineto
            7 3 -4 return
          </CharString>
          <CharString index="663">
            -4 9 vhcurveto
            42 433 callgsubr
            return
          </CharString>
          <CharString index="664">
            -12 -3 -76 callsubr
            return
          </CharString>
          <CharString index="665">
            -60 -30 32 59 hvcurveto
            return
          </CharString>
          <CharString index="666">
            -4 hlineto
            -23 -13 -9 return
          </CharString>
          <CharString index="667">
            vlineto
            75 -46 35 return
          </CharString>
          <CharString index="668">
            hlineto
            -20 callgsubr
            return
          </CharString>
          <CharString index="669">
            632 callgsubr
            -33 -62 hvcurveto
            return
          </CharString>
          <CharString index="670">
            hlineto
            62 338 callsubr
            return
          </CharString>
          <CharString index="671">
            -184 -144 rlineto
            -10 -8 -5 -5 -8 vvcurveto
            -7 333 callgsubr
            return
          </CharString>
          <CharString index="672">
            362 rmoveto
            11 1 4 5 10 vvcurveto
            33 172 callsubr
            return
          </CharString>
          <CharString index="673">
            577 callsubr
            -93 return
          </CharString>
          <CharString index="674">
            626 callgsubr
            -5 11 vhcurveto
            return
          </CharString>
          <CharString index="675">
            -9 hvcurveto
            -30 vlineto
            -9 3 -4 11 vhcurveto
            37 hlineto
            8 2 -3 -7 hvcurveto
            return
          </CharString>
          <CharString index="676">
            216 callsubr
            endchar
          </CharString>
          <CharString index="677">
            hlineto
            205 callsubr
            482 vlineto
            22 callsubr
            endchar
          </CharString>
          <CharString index="678">
            -4 6 -9 hhcurveto
            endchar
          </CharString>
          <CharString index="679">
            hlineto
            10 5 3 return
          </CharString>
          <CharString index="680">
            hlineto
            -58 -24 23 57 hvcurveto
            34 vlineto
            49 22 26 51 vhcurveto
            35 hlineto
            return
          </CharString>
          <CharString index="681">
            hlineto
            82 52 48 95 hvcurveto
            74 vlineto
            38 -13 27 650 callsubr
            return
          </CharString>
          <CharString index="682">
            64 102 callsubr
            return
          </CharString>
          <CharString index="683">
            426 callgsubr
            10 vhcurveto
            38 hlineto
            return
          </CharString>
          <CharString index="684">
            -5 callsubr
            -54 hlineto
            return
          </CharString>
          <CharString index="685">
            hlineto
            81 430 callgsubr
            -81 vhcurveto
            -87 hlineto
            return
          </CharString>
          <CharString index="686">
            623 callsubr
            endchar
          </CharString>
          <CharString index="687">
            hlineto
            -67 -38 -42 491 callsubr
            7 return
          </CharString>
          <CharString index="688" raw="1">
            a49c1d0b   
          </CharString>
          <CharString index="689">
            586 callgsubr
            46 hlineto
            return
          </CharString>
          <CharString index="690">
            -5 16 18 595 callsubr
            return
          </CharString>
          <CharString index="691">
            -29 414 callgsubr
            return
          </CharString>
          <CharString index="692">
            32 vlineto
            9 -4 6 -11 vhcurveto
            return
          </CharString>
          <CharString index="693">
            19 -16 -43 hvcurveto
            -24 vlineto
            -45 return
          </CharString>
          <CharString index="694">
            vhcurveto
            44 hlineto
            10 6 4 6 return
          </CharString>
          <CharString index="695">
            -20 -66 hvcurveto
            -65 vlineto
            -60 return
          </CharString>
          <CharString index="696">
            hlineto
            -9 441 callsubr
            return
          </CharString>
          <CharString index="697" raw="1">
            91801e7f 06560b  
          </CharString>
          <CharString index="698">
            3 4 7 vhcurveto
            184 return
          </CharString>
          <CharString index="699">
            -110 vlineto
            -100 56 -49 return
          </CharString>
          <CharString index="700">
            hlineto
            46 22 -26 -49 hvcurveto
            return
          </CharString>
          <CharString index="701">
            28 60 hvcurveto
            32 vlineto
            59 return
          </CharString>
          <CharString index="702">
            vvcurveto
            34 393 callsubr
            return
          </CharString>
          <CharString index="703">
            600 callsubr
            -2 return
          </CharString>
          <CharString index="704">
            rlineto
            -3 -3 -2 -4 return
          </CharString>
          <CharString index="705">
            649 callsubr
            vvcurveto
            return
          </CharString>
          <CharString index="706">
            24 6 17 24 vvcurveto
            return
          </CharString>
          <CharString index="707">
            hlineto
            -9 -6 -4 -11 return
          </CharString>
          <CharString index="708">
            92 318 callsubr
            return
          </CharString>
          <CharString index="709">
            -2 -4 -8 vhcurveto
            return
          </CharString>
          <CharString index="710">
            28 -31 -56 hvcurveto
            return
          </CharString>
          <CharString index="711">
            -22 -41 -14 hvcurveto
            return
          </CharString>
          <CharString index="712">
            vlineto
            83 -56 37 return
          </CharString>
          <CharString index="713">
            -2 -3 -8 vhcurveto
            return
          </CharString>
          <CharString index="714">
            70 rmoveto
            -1 callgsubr
            return
          </CharString>
          <CharString index="715">
            rmoveto
            34 hlineto
            10 193 callsubr
            return
          </CharString>
          <CharString index="716">
            70 rmoveto
            -69 callgsubr
            return
          </CharString>
          <CharString index="717">
            303 callgsubr
            88 105 rlineto
            8 6 -4 6 -9 hhcurveto
            return
          </CharString>
          <CharString index="718">
            280 callgsubr
            -5 vvcurveto
            -8 157 callsubr
            46 hlineto
            return
          </CharString>
          <CharString index="719">
            202 callsubr
            -615 539 callgsubr
            return
          </CharString>
          <CharString index="720">
            hlineto
            -91 -56 -55 -92 hvcurveto
            -349 vlineto
            -92 56 -55 91 vhcurveto
            return
          </CharString>
          <CharString index="721">
            497 callgsubr
            9 vhcurveto
            return
          </CharString>
          <CharString index="722">
            484 callgsubr
            -174 hlineto
            -66 -38 -42 -64 -9 1 return
          </CharString>
          <CharString index="723">
            687 callsubr
            -134 hlineto
            return
          </CharString>
          <CharString index="724">
            vlineto
            -7 -4 -4 -7 vhcurveto
            -110 hlineto
            560 callgsubr
            return
          </CharString>
          <CharString index="725">
            vhcurveto
            -119 hlineto
            return
          </CharString>
          <CharString index="726">
            -3 1 -4 hhcurveto
            return
          </CharString>
          <CharString index="727">
            43 -32 86 vhcurveto
            return
          </CharString>
          <CharString index="728">
            vlineto
            -60 -29 -30 return
          </CharString>
          <CharString index="729">
            vlineto
            -12 5 -6 12 vhcurveto
            41 hlineto
            11 6 6 12 hvcurveto
            return
          </CharString>
          <CharString index="730">
            hlineto
            -10 -105 callgsubr
            10 vhcurveto
            return
          </CharString>
          <CharString index="731">
            vvcurveto
            6 -3 4 -5 6 vhcurveto
            -14 16 -8 13 20 vvcurveto
            return
          </CharString>
          <CharString index="732">
            -98 callsubr
            -74 vlineto
            -7 -4 -3 -7 vhcurveto
            return
          </CharString>
          <CharString index="733">
            hlineto
            -59 -32 25 66 hvcurveto
            102 vlineto
            65 27 26 54 51 return
          </CharString>
          <CharString index="734">
            214 callgsubr
            -4 -10 hvcurveto
            return
          </CharString>
          <CharString index="735">
            rmoveto
            659 callgsubr
            return
          </CharString>
          <CharString index="736">
            rmoveto
            691 callgsubr
            10 -4 4 -12 vhcurveto
            return
          </CharString>
          <CharString index="737">
            97 callsubr
            -33 124 callsubr
            return
          </CharString>
          <CharString index="738">
            5 3 8 4 -2 4 -3 4 hvcurveto
            -89 118 rlineto
            return
          </CharString>
          <CharString index="739">
            683 callgsubr
            -7 -5 return
          </CharString>
          <CharString index="740">
            244 callgsubr
            -29 hlineto
            -12 return
          </CharString>
          <CharString index="741">
            -4 7 535 callsubr
          </CharString>
          <CharString index="742">
            172 callsubr
            -61 hlineto
            return
          </CharString>
          <CharString index="743">
            -32 -51 vhcurveto
            -57 vlineto
            -94 61 -73 return
          </CharString>
          <CharString index="744">
            -4 hhcurveto
            -6 -4 -5 -6 -6 hvcurveto
            return
          </CharString>
          <CharString index="745">
            516 callsubr
            129 vlineto
            66 return
          </CharString>
          <CharString index="746">
            313 callsubr
            -15 -19 return
          </CharString>
          <CharString index="747">
            4 3 5 3 vhcurveto
            33 80 rlineto
            return
          </CharString>
          <CharString index="748">
            -4 hlineto
            -24 -12 -11 -24 -38 vvcurveto
            return
          </CharString>
          <CharString index="749">
            hvcurveto
            26 370 callsubr
            return
          </CharString>
          <CharString index="750">
            vhcurveto
            -8 7 6 -5 return
          </CharString>
          <CharString index="751">
            -34 -17 -28 -13 hvcurveto
            return
          </CharString>
          <CharString index="752">
            2 5 7 -4 hvcurveto
            return
          </CharString>
          <CharString index="753">
            -55 -85 hvcurveto
            -44 vlineto
            return
          </CharString>
          <CharString index="754">
            hhcurveto
            -77 hlineto
            -11 -4 return
          </CharString>
          <CharString index="755">
            -30 29 60 hvcurveto
            return
          </CharString>
          <CharString index="756">
            -3 -2 -3 -4 return
          </CharString>
          <CharString index="757">
            -26 13 vhcurveto
            4 return
          </CharString>
          <CharString index="758">
            -17 vhcurveto
            -4 vlineto
            return
          </CharString>
          <CharString index="759">
            42 -12 vhcurveto
            -4 return
          </CharString>
          <CharString index="760">
            9 -5 -7 4 return
          </CharString>
          <CharString index="761">
            -3 -4 -9 hvcurveto
            return
          </CharString>
          <CharString index="762">
            rmoveto
            424 callsubr
            return
          </CharString>
          <CharString index="763">
            7 7 6 6 7 vvcurveto
            4 -1 4 -4 4 vhcurveto
            return
          </CharString>
          <CharString index="764">
            -10 251 callsubr
            10 hvcurveto
            return
          </CharString>
          <CharString index="765">
            435 callgsubr
            -56 -35 604 callsubr
            return
          </CharString>
          <CharString index="766">
            15 11 24 hvcurveto
            129 529 callsubr
            8 vhcurveto
            return
          </CharString>
          <CharString index="767">
            55 -91 vhcurveto
            -56 hlineto
            -51 -36 -21 -32 -15 hvcurveto
            -4 return
          </CharString>
          <CharString index="768">
            hvcurveto
            87 105 rlineto
            8 6 -4 6 -8 hhcurveto
            endchar
          </CharString>
          <CharString index="769">
            -2 5 5 4 2 5 return
          </CharString>
          <CharString index="770">
            -77 hvcurveto
            -9 vlineto
            -78 43 return
          </CharString>
          <CharString index="771">
            55 93 hvcurveto
            214 vlineto
            return
          </CharString>
          <CharString index="772">
            12 56 hvcurveto
            7 vlineto
            13 return
          </CharString>
          <CharString index="773">
            vlineto
            6 2 3 8 vhcurveto
            return
          </CharString>
          <CharString index="774">
            hlineto
            -60 -29 33 58 hvcurveto
            return
          </CharString>
          <CharString index="775">
            -3 2 -4 hvcurveto
            59 -87 return
          </CharString>
          <CharString index="776">
            hlineto
            -91 380 callsubr
            return
          </CharString>
          <CharString index="777">
            rmoveto
            302 callgsubr
            return
          </CharString>
          <CharString index="778">
            -96 callsubr
            -361 return
          </CharString>
          <CharString index="779">
            rmoveto
            290 callsubr
            return
          </CharString>
          <CharString index="780">
            644 callgsubr
            80 return
          </CharString>
          <CharString index="781">
            4 10 2 hvcurveto
            return
          </CharString>
          <CharString index="782">
            hlineto
            8 3 -3 return
          </CharString>
          <CharString index="783">
            4 6 6 hvcurveto
            return
          </CharString>
          <CharString index="784">
            48 38 89 hvcurveto
            return
          </CharString>
          <CharString index="785">
            52 -48 88 vhcurveto
            return
          </CharString>
          <CharString index="786">
            -3 hvcurveto
            -187 return
          </CharString>
          <CharString index="787">
            5 -4 9 hhcurveto
            return
          </CharString>
          <CharString index="788">
            hvcurveto
            -87 vlineto
            559 callgsubr
            30 hlineto
            46 return
          </CharString>
          <CharString index="789">
            155 callsubr
            -38 441 callgsubr
            return
          </CharString>
          <CharString index="790">
            rmoveto
            8 505 callsubr
            return
          </CharString>
          <CharString index="791">
            rmoveto
            -27 -12 14 29 hvcurveto
            23 vlineto
            29 12 14 return
          </CharString>
          <CharString index="792">
            -2 510 callgsubr
            8 392 callsubr
            return
          </CharString>
          <CharString index="793">
            vlineto
            554 callsubr
            return
          </CharString>
          <CharString index="794">
            -86 callgsubr
            -121 137 callgsubr
            return
          </CharString>
          <CharString index="795">
            11 hvcurveto
            37 vlineto
            11 291 callgsubr
            endchar
          </CharString>
          <CharString index="796">
            hhcurveto
            35 hlineto
            8 392 callsubr
            endchar
          </CharString>
          <CharString index="797">
            rlineto
            6 5 2 4 4 vvcurveto
            return
          </CharString>
          <CharString index="798">
            hlineto
            -66 -39 -42 -60 -25 5 return
          </CharString>
          <CharString index="799">
            -4 313 callsubr
            return
          </CharString>
          <CharString index="800">
            -3 3 6 hvcurveto
            86 vlineto
            10 return
          </CharString>
          <CharString index="801">
            16 vlineto
            85 677 callsubr
            return
          </CharString>
          <CharString index="802">
            vhcurveto
            45 680 callgsubr
            5 return
          </CharString>
          <CharString index="803">
            -3 2 -6 vhcurveto
            -21 hlineto
            -7 return
          </CharString>
          <CharString index="804">
            5 596 callgsubr
            return
          </CharString>
          <CharString index="805">
            -9 hhcurveto
            -51 hlineto
            -9 return
          </CharString>
          <CharString index="806">
            12 -6 3 -9 vhcurveto
            return
          </CharString>
          <CharString index="807">
            5 674 callsubr
            return
          </CharString>
          <CharString index="808">
            42 20 18 48 vhcurveto
            return
          </CharString>
          <CharString index="809">
            -114 hlineto
            -11 5 return
          </CharString>
          <CharString index="810">
            rlineto
            11 -3 -6 3 return
          </CharString>
          <CharString index="811">
            14 rmoveto
            -11 5 -3 return
          </CharString>
          <CharString index="812">
            -11 708 callgsubr
            return
          </CharString>
          <CharString index="813">
            -92 380 callsubr
            return
          </CharString>
          <CharString index="814">
            54 -46 90 vhcurveto
            return
          </CharString>
          <CharString index="815">
            92 vhcurveto
            52 hlineto
            return
          </CharString>
          <CharString index="816">
            29 15 hvcurveto
            4 return
          </CharString>
          <CharString index="817">
            -15 -17 -24 -39 vvcurveto
            -19 vlineto
            -77 47 -31 return
          </CharString>
          <CharString index="818">
            393 callsubr
            153 hlineto
            8 2 -4 return
          </CharString>
          <CharString index="819">
            37 -74 -75 529 callgsubr
            -49 vlineto
            -12 return
          </CharString>
          <CharString index="820">
            605 callsubr
            -75 -74 529 callgsubr
            return
          </CharString>
          <CharString index="821">
            324 callsubr
            -23 hlineto
            return
          </CharString>
          <CharString index="822">
            25 26 -18 19 -26 -25 -19 -19 -26 vhcurveto
            return
          </CharString>
          <CharString index="823">
            -5 9 hhcurveto
            43 hlineto
            9 5 6 7 3 return
          </CharString>
          <CharString index="824">
            542 callgsubr
            24 -19 -42 vhcurveto
            return
          </CharString>
          <CharString index="825">
            599 callsubr
            endchar
          </CharString>
          <CharString index="826">
            17 7 44 18 vhcurveto
            endchar
          </CharString>
          <CharString index="827">
            105 rlineto
            9 6 return
          </CharString>
          <CharString index="828">
            4 -4 9 vhcurveto
            return
          </CharString>
          <CharString index="829">
            608 rmoveto
            10 return
          </CharString>
          <CharString index="830">
            vhcurveto
            21 hlineto
            6 return
          </CharString>
          <CharString index="831">
            27 -26 13 vhcurveto
            return
          </CharString>
        <CharString name=".notdef">
          106 120 hmoveto
          360 582 -360 hlineto
          50 -46 rmoveto
          260 -490 -260 hlineto
          endchar
        </CharString>
        <CharString name="A">
          46 -70 callgsubr
          endchar
        </CharString>
        <CharString name="AE">
          72 callgsubr
          endchar
        </CharString>
        <CharString name="AEacute">
          72 callgsubr
          474 836 346 callgsubr
        </CharString>
        <CharString name="Aacute">
          45 -70 callgsubr
          291 836 rmoveto
          -9 -8 -4 -9 -4 hvcurveto
          -58 255 callsubr
        </CharString>
        <CharString name="Abreve">
          45 -70 callgsubr
          128 825 rmoveto
          -12 vlineto
          -72 33 -34 62 vhcurveto
          18 hlineto
          62 34 32 callgsubr
          -4 3 -7 vhcurveto
          -27 hlineto
          -7 -4 -3 -8 hvcurveto
          endchar
        </CharString>
        <CharString name="Acircumflex">
          45 -70 callgsubr
          270 233 callsubr
          endchar
        </CharString>
        <CharString name="Adieresis">
          45 -70 callgsubr
          284 721 166 callsubr
          -171 -101 166 callsubr
          endchar
        </CharString>
        <CharString name="Agrave">
          45 -70 callgsubr
          194 823 rmoveto
          9 -4 -8 4 -9 243 callgsubr
        </CharString>
        <CharString name="Amacron">
          45 -70 callgsubr
          333 746 712 callgsubr
          5 -11 208 callsubr
        </CharString>
        <CharString name="Aogonek">
          45 165 222 rmoveto
          103 346 rlineto
          4 hlineto
          103 -346 rlineto
          -50 407 rmoveto
          11 -3 -6 3 -10 hhcurveto
          -72 hlineto
          -10 -6 -3 -11 679 callsubr
          -615 rlineto
          -10 -3 3 -4 9 hhcurveto
          50 hlineto
          9 3 3 11 3 hvcurveto
          47 146 rlineto
          242 hlineto
          45 -141 -61 -86 rlineto
          -21 -15 8 -23 34 hhcurveto
          37 43 11 19 11 -5 3 -21 hvcurveto
          -39 hlineto
          48 67 rlineto
          38 hlineto
          9 3 4 10 -3 hvcurveto
          endchar
        </CharString>
        <CharString name="Aring">
          45 -70 callgsubr
          225 730 rmoveto
          -27 -13 14 29 hvcurveto
          23 vlineto
          29 13 14 27 vhcurveto
          13 hlineto
          27 12 -14 -29 hvcurveto
          -23 vlineto
          -29 -12 -14 -28 vhcurveto
          10 -33 rmoveto
          42 25 25 43 hvcurveto
          41 vlineto
          42 -25 24 -42 vhcurveto
          -31 hlineto
          -43 -23 -24 -42 hvcurveto
          -41 vlineto
          -43 23 -25 43 vhcurveto
          endchar
        </CharString>
        <CharString name="Atilde">
          45 -70 callgsubr
          246 753 rmoveto
          29 14 3 416 callsubr
          -50 -27 -14 -9 -35 -16 vhcurveto
          -37 -17 -5 -8 -14 hhcurveto
          -20 -5 301 callgsubr
          50 25 719 callsubr
        </CharString>
        <CharString name="B">
          55 79 587 callgsubr
          242 hlineto
          92 56 53 93 hvcurveto
          67 vlineto
          70 -45 40 -47 4 vhcurveto
          49 15 35 35 65 vvcurveto
          55 vlineto
          93 -56 53 -91 vhcurveto
          -235 690 callgsubr
          -271 rmoveto
          -7 -3 3 6 hvcurveto
          204 432 callgsubr
          157 hlineto
          56 29 -29 -56 hvcurveto
          -53 vlineto
          -56 -31 -29 -57 vhcurveto
          -154 -296 rmoveto
          -7 -3 3 7 hvcurveto
          216 7 callsubr
          158 hlineto
          63 29 -28 -57 hvcurveto
          -65 vlineto
          -56 -29 -29 -57 vhcurveto
          endchar
        </CharString>
        <CharString name="C">
          47 337 hmoveto
          -5 callgsubr
        </CharString>
        <CharString name="CR">
          -494 endchar
        </CharString>
        <CharString name="Cacute">
          47 323 836 rmoveto
          -10 -7 -4 -9 -5 hvcurveto
          -57 322 callsubr
          7 8 453 callgsubr
          87 105 rlineto
          8 6 -4 6 -9 hhcurveto
          -46 -836 rmoveto
          -5 callgsubr
        </CharString>
        <CharString name="Ccaron">
          47 295 707 rmoveto
          10 275 callsubr
          -4 -2 -6 -3 hvcurveto
          -47 -88 -48 88 rlineto
          6 -2 -5 2 -7 360 callgsubr
          75 -707 rmoveto
          -5 callgsubr
        </CharString>
        <CharString name="Ccedilla">
          47 471 432 rmoveto
          9 5 4 10 hvcurveto
          49 295 callsubr
          -120 hlineto
          706 callsubr
          -347 vlineto
          -93 56 -55 92 vhcurveto
          53 hlineto
          -40 -46 rlineto
          -18 -16 9 -26 24 hhcurveto
          16 hlineto
          39 12 -6 -24 hvcurveto
          -3 vlineto
          -21 -12 -8 -39 532 callgsubr
          33 19 45 hvcurveto
          13 vlineto
          48 -28 17 -49 vhcurveto
          4 vlineto
          44 46 rlineto
          14 hlineto
          601 callsubr
          49 278 callsubr
          -45 126 callsubr
          -46 371 callgsubr
          -103 116 callsubr
          103 375 callgsubr
          -46 589 callgsubr
          endchar
        </CharString>
        <CharString name="Cdotaccent">
          47 241 725 245 callsubr
          96 -822 rmoveto
          -5 callgsubr
        </CharString>
        <CharString name="D">
          191 callsubr
          endchar
        </CharString>
        <CharString name="Dcaron">
          191 callsubr
          -72 643 rmoveto
          34 hlineto
          9 275 callsubr
          -4 -2 -6 -3 hvcurveto
          -48 -88 -47 88 rlineto
          6 -3 -3 2 -8 360 callgsubr
          endchar
        </CharString>
        <CharString name="Dcroat">
          443 callgsubr
          -224 vlineto
          526 callsubr
          -37 hlineto
          -11 -3 -4 568 callsubr
          -315 -11 callgsubr
          69 64 rmoveto
          -7 -3 3 6 hvcurveto
          256 432 callgsubr
          126 267 callgsubr
          30 399 callgsubr
          -126 671 callgsubr
          165 7 callsubr
          168 375 callgsubr
          -341 371 callgsubr
          endchar
        </CharString>
        <CharString name="E">
          -14 -78 callgsubr
          endchar
        </CharString>
        <CharString name="Eacute">
          -14 -78 callgsubr
          204 836 rmoveto
          -10 -7 -4 -9 466 callgsubr
          -5 2 491 callgsubr
        </CharString>
        <CharString name="Ebreve">
          -14 -78 callgsubr
          48 825 rmoveto
          -12 vlineto
          -72 33 -34 63 vhcurveto
          17 hlineto
          62 34 32 callgsubr
          -4 3 -6 vhcurveto
          -28 433 callsubr
          endchar
        </CharString>
        <CharString name="Ecaron">
          -14 -78 callgsubr
          142 707 rmoveto
          35 hlineto
          9 275 callsubr
          -4 -2 -6 -3 hvcurveto
          -47 -88 -48 88 rlineto
          6 -3 -4 2 -7 hhcurveto
          -33 hlineto
          -9 569 callsubr
        </CharString>
        <CharString name="Ecircumflex">
          -14 -78 callgsubr
          194 826 rmoveto
          7 -5 -6 3 -10 235 callsubr
          48 -88 rlineto
          -6 2 4 -2 7 689 callsubr
        </CharString>
        <CharString name="Edieresis">
          -14 -78 callgsubr
          208 721 50 callsubr
        </CharString>
        <CharString name="Edotaccent">
          -2 -78 callgsubr
          120 383 callsubr
        </CharString>
        <CharString name="Egrave">
          -14 -78 callgsubr
          128 823 rmoveto
          9 -4 -7 4 -10 243 callgsubr
        </CharString>
        <CharString name="Emacron">
          -14 -78 callgsubr
          257 746 712 callgsubr
          5 -11 208 callsubr
        </CharString>
        <CharString name="Eng">
          45 358 -150 rmoveto
          91 57 56 92 hvcurveto
          631 -62 callsubr
          -479 -4 vlineto
          -275 485 rlineto
          2 -1 -4 6 -11 hhcurveto
          -42 612 callsubr
          45 hlineto
          430 callsubr
          71 -119 132 -241 70 -120 rrcurveto
          -4 vlineto
          -65 -28 -30 -64 vhcurveto
          -23 470 callsubr
          endchar
        </CharString>
        <CharString name="Eogonek">
          -14 407 579 rmoveto
          10 4 5 9 hvcurveto
          36 370 callsubr
          -314 16 callgsubr
          224 hlineto
          -48 -67 rlineto
          -21 -16 423 callgsubr
          49 67 rlineto
          48 103 callgsubr
          -245 hlineto
          -7 -3 3 6 hvcurveto
          213 7 callsubr
          214 103 callgsubr
          -214 102 callgsubr
          endchar
        </CharString>
        <CharString name="Eth">
          443 callgsubr
          -267 vlineto
          -6 606 callsubr
          -37 hlineto
          -11 -3 -5 568 callsubr
          -272 -11 callgsubr
          69 64 rmoveto
          -7 -3 3 6 hvcurveto
          213 432 callgsubr
          126 267 callgsubr
          30 195 callgsubr
          -126 hlineto
          -7 -3 3 6 hvcurveto
          208 7 callsubr
          168 375 callgsubr
          -341 371 callgsubr
          endchar
        </CharString>
        <CharString name="Euro">
          36 316 hmoveto
          91 57 53 93 hvcurveto
          25 278 callsubr
          -45 126 callsubr
          -24 vlineto
          -56 -28 -29 -56 vhcurveto
          -47 hlineto
          -56 -29 29 56 hvcurveto
          84 139 vlineto
          12 343 callsubr
          23 -33 callsubr
          -139 71 139 hlineto
          12 343 callsubr
          23 -33 callsubr
          -139 88 hlineto
          56 29 29 56 vhcurveto
          47 hlineto
          56 28 -29 -56 hvcurveto
          -24 vlineto
          657 callsubr
          25 vlineto
          93 -57 53 -91 vhcurveto
          -65 hlineto
          -91 -57 -53 -93 hvcurveto
          -89 -55 vlineto
          557 callsubr
          -23 317 callsubr
          55 -71 -55 hlineto
          557 callsubr
          -23 317 callsubr
          55 -85 hlineto
          -93 57 -53 91 vhcurveto
          endchar
        </CharString>
        <CharString name="F">
          -37 138 210 callgsubr
          255 432 callgsubr
          214 hlineto
          10 4 4 10 hvcurveto
          36 370 callsubr
          -214 hlineto
          -7 -3 3 6 hvcurveto
          218 7 callsubr
          242 103 callgsubr
          -311 16 callgsubr
          endchar
        </CharString>
        <CharString name="G">
          -43 callsubr
          endchar
        </CharString>
        <CharString name="Gbreve">
          -43 callsubr
          -50 825 rmoveto
          -12 vlineto
          -72 33 -34 62 vhcurveto
          17 hlineto
          63 33 34 72 hvcurveto
          12 vlineto
          8 -3 2 -8 vhcurveto
          -26 hlineto
          -6 607 callgsubr
          -15 18 50 hvcurveto
          10 vlineto
          8 -3 3 -7 vhcurveto
          -28 hlineto
          -7 -3 -3 -8 hvcurveto
          endchar
        </CharString>
        <CharString name="Gcircumflex">
          -43 callsubr
          92 826 234 callgsubr
        </CharString>
        <CharString name="Gdotaccent">
          -43 callsubr
          17 725 245 callsubr
          endchar
        </CharString>
        <CharString name="H">
          78 138 210 callgsubr
          270 7 callsubr
          248 160 callsubr
          -270 vlineto
          -11 5 -3 9 vhcurveto
          45 217 callsubr
          -45 hlineto
          -7 callgsubr
          hvcurveto
          -263 vlineto
          -6 177 callgsubr
          -248 hlineto
          -7 -3 3 6 hvcurveto
          263 168 callgsubr
          endchar
        </CharString>
        <CharString name="Hbar">
          54 172 349 rmoveto
          -7 -3 3 7 hvcurveto
          89 7 callsubr
          248 160 callsubr
          -89 47 callsubr
          -272 -349 461 callsubr
          262 666 callsubr
          248 160 callsubr
          -262 -11 callgsubr
          44 hlineto
          9 6 3 11 hvcurveto
          434 7 callsubr
          41 hlineto
          11 3 4 10 hvcurveto
          29 195 callgsubr
          -41 671 callgsubr
          105 vlineto
          11 -6 3 -9 vhcurveto
          -44 hlineto
          -7 callgsubr
          hvcurveto
          -106 vlineto
          -5 602 callsubr
          -248 hlineto
          -8 -2 3 7 hvcurveto
          105 -62 callsubr
          -105 47 callsubr
          -41 97 callsubr
          -29 vlineto
          -10 3 -4 11 vhcurveto
          41 160 callsubr
          -434 -11 callgsubr
          endchar
        </CharString>
        <CharString name="I">
          -253 19 callsubr
          endchar
        </CharString>
        <CharString name="IJ">
          236 158 629 rmoveto
          514 callgsubr
          46 hlineto
          9 4 3 11 hvcurveto
          441 629 rmoveto
          182 callgsubr
          -478 371 callgsubr
          -82 507 callsubr
          83 201 callgsubr
          -86 vlineto
          -93 56 -55 91 vhcurveto
          100 hlineto
          91 57 55 93 hvcurveto
          482 vlineto
          9 291 callgsubr
          endchar
        </CharString>
        <CharString name="Iacute">
          -253 19 callsubr
          19 822 rmoveto
          -9 -7 -4 -9 -5 hvcurveto
          -58 -102 rlineto
          -9 -4 2 646 callgsubr
          8 570 callgsubr
        </CharString>
        <CharString name="Ibreve">
          -253 19 callsubr
          -141 811 rmoveto
          -12 vlineto
          -72 33 -34 63 vhcurveto
          17 hlineto
          62 34 32 callgsubr
          -4 3 -6 vhcurveto
          -28 433 callsubr
          endchar
        </CharString>
        <CharString name="Icircumflex">
          -254 19 callsubr
          812 vmoveto
          108 callgsubr
          3 hvcurveto
          47 335 callsubr
        </CharString>
        <CharString name="Idieresis">
          -254 19 callsubr
          14 707 211 callgsubr
        </CharString>
        <CharString name="Idotaccent">
          -253 84 706 rmoveto
          -10 721 callsubr
          46 433 callgsubr
          94 vlineto
          10 -5 3 428 callsubr
          73 -170 21 callsubr
          endchar
        </CharString>
        <CharString name="Igrave">
          -253 19 callsubr
          -71 809 355 callgsubr
        </CharString>
        <CharString name="Imacron">
          -254 19 callsubr
          64 732 rmoveto
          10 4 5 9 hvcurveto
          26 vlineto
          9 -4 5 -10 208 callsubr
        </CharString>
        <CharString name="Iogonek">
          -253 98 643 rmoveto
          -7 callgsubr
          hvcurveto
          -615 vlineto
          -9 4 -4 6 -1 vhcurveto
          -48 -67 rlineto
          -21 -16 8 -23 35 hhcurveto
          37 43 11 19 11 -5 3 -20 hvcurveto
          -40 hlineto
          49 67 rlineto
          6 217 callsubr
          endchar
        </CharString>
        <CharString name="Itilde">
          -254 19 callsubr
          -23 739 rmoveto
          29 14 2 533 callgsubr
          526 callgsubr
          -13 29 -50 501 callsubr
          -21 -5 284 callsubr
          25 18 7 44 18 vhcurveto
          endchar
        </CharString>
        <CharString name="J">
          11 373 643 211 callsubr
        </CharString>
        <CharString name="Jcircumflex">
          2 430 826 62 callgsubr
          -120 -76 211 callsubr
        </CharString>
        <CharString name="K">
          132 callgsubr
          endchar
        </CharString>
        <CharString name="L">
          72 callsubr
          endchar
        </CharString>
        <CharString name="Lacute">
          72 callsubr
          79 836 288 callgsubr
          -5 3 491 callgsubr
        </CharString>
        <CharString name="Lcaron">
          72 callsubr
          278 630 279 callsubr
          -44 hlineto
          -8 215 callsubr
          -212 vlineto
          -10 6 662 callsubr
          2 vhcurveto
          34 95 rlineto
          8 718 callsubr
        </CharString>
        <CharString name="Ldot">
          5 357 374 627 callsubr
          -108 629 callgsubr
          60 -264 rmoveto
          353 callgsubr
          37 vlineto
          9 -3 6 -11 vhcurveto
          -251 hlineto
          -8 -3 3 6 hvcurveto
          554 vlineto
          22 callsubr
          -45 612 callsubr
          endchar
        </CharString>
        <CharString name="Lslash">
          13 430 594 callgsubr
          37 591 callgsubr
          -252 hlineto
          -8 -2 3 6 hvcurveto
          315 vlineto
          95 54 rlineto
          10 5 4 6 9 vvcurveto
          38 vlineto
          9 -5 4 -9 -5 vhcurveto
          -95 -53 rlineto
          172 -62 callsubr
          -214 vlineto
          -70 -40 rlineto
          -10 -5 -4 -6 -9 vvcurveto
          -37 vlineto
          -9 5 -4 9 5 vhcurveto
          70 40 rlineto
          -336 -11 callgsubr
          endchar
        </CharString>
        <CharString name="M">
          211 355 221 rmoveto
          -5 hlineto
          -164 414 rlineto
          5 -2 -3 3 -7 hhcurveto
          -81 hlineto
          -8 -6 -3 -11 hvcurveto
          -615 vlineto
          -11 6 -3 8 vhcurveto
          44 hlineto
          10 3 3 11 hvcurveto
          532 4 vlineto
          158 -393 rlineto
          -9 3 4 -4 10 hhcurveto
          48 hlineto
          9 5 4 9 4 hvcurveto
          155 392 rlineto
          4 -531 hlineto
          125 callgsubr
          44 217 callsubr
          -81 hlineto
          -7 -4 -3 -5 -1 hvcurveto
          endchar
        </CharString>
        <CharString name="Mu">
          44 152 28 rmoveto
          -34 29 54 6 44 hhcurveto
          52 172 callgsubr
          -39 hlineto
          125 callgsubr
          44 hlineto
          10 291 callsubr
          482 vlineto
          11 -5 3 -10 vhcurveto
          -44 552 callsubr
          -33 -34 -60 vhcurveto
          -57 507 callsubr
          345 vlineto
          11 -4 3 -9 vhcurveto
          -46 612 callsubr
          46 hlineto
          9 4 3 11 hvcurveto
          endchar
        </CharString>
        <CharString name="N">
          9 callsubr
          endchar
        </CharString>
        <CharString name="NULL">
          -494 endchar
        </CharString>
        <CharString name="Nacute">
          9 callsubr
          257 394 callgsubr
          6 -4 6 -9 hhcurveto
          endchar
        </CharString>
        <CharString name="Ncaron">
          87 277 707 rmoveto
          35 hlineto
          9 218 callgsubr
          -35 hlineto
          -6 -5 379 callsubr
          -140 -707 rmoveto
          18 callsubr
          endchar
        </CharString>
        <CharString name="Ntilde">
          9 callsubr
          211 753 rmoveto
          29 14 3 451 callsubr
          -10 272 callgsubr
          6 vhcurveto
          21 hlineto
          7 526 callgsubr
          -14 29 -49 -28 -14 -9 -35 -16 vhcurveto
          -37 -17 -5 -8 -14 hhcurveto
          -20 -5 301 callgsubr
          49 26 719 callsubr
        </CharString>
        <CharString name="O">
          -55 callgsubr
          endchar
        </CharString>
        <CharString name="OE">
          283 229 575 callsubr
          130 675 callsubr
          -6 hvcurveto
          -497 vlineto
          -6 -3 -3 -8 vhcurveto
          -286 84 rmoveto
          -93 56 -55 91 vhcurveto
          473 hlineto
          11 4 5 9 hvcurveto
          36 266 callsubr
          -241 hlineto
          -7 -3 3 6 hvcurveto
          213 7 callsubr
          210 hlineto
          11 3 5 9 hvcurveto
          36 195 callgsubr
          -210 102 callgsubr
          241 hlineto
          11 4 5 9 hvcurveto
          36 266 callsubr
          -473 669 callsubr
          endchar
        </CharString>
        <CharString name="Oacute">
          -55 callgsubr
          -3 772 346 callsubr
        </CharString>
        <CharString name="Obreve">
          -55 callgsubr
          -155 761 rmoveto
          -12 vlineto
          229 callsubr
          endchar
        </CharString>
        <CharString name="Ocircumflex">
          -55 callgsubr
          -12 762 rmoveto
          7 -5 -6 3 -9 hhcurveto
          -35 180 callgsubr
          48 -88 rlineto
          -6 2 5 685 callsubr
          endchar
        </CharString>
        <CharString name="Odieresis">
          -55 callgsubr
          657 vmoveto
          257 callgsubr
          -171 -101 rmoveto
          257 callgsubr
          endchar
        </CharString>
        <CharString name="Ograve">
          -55 callgsubr
          -83 759 556 callgsubr
          -3 -6 -8 6 458 callsubr
          34 524 callsubr
        </CharString>
        <CharString name="Ohungarumlaut">
          -55 callgsubr
          70 772 rmoveto
          534 callgsubr
          6 676 callsubr
          77 105 rlineto
          9 7 -5 5 -9 hhcurveto
          -172 hmoveto
          534 callgsubr
          303 callgsubr
          77 636 callgsubr
          endchar
        </CharString>
        <CharString name="Omacron">
          -55 callgsubr
          50 682 rmoveto
          10 4 5 9 642 callsubr
          -202 hlineto
          -10 492 callsubr
          -26 371 callsubr
          endchar
        </CharString>
        <CharString name="Oslash">
          71 419 151 75 callsubr
        </CharString>
        <CharString name="Oslashacute">
          70 289 707 683 callsubr
          7 -5 6 -8 hhcurveto
          -61 hlineto
          -9 -7 -4 -9 -5 hvcurveto
          -58 -102 rlineto
          -9 -5 3 -5 8 hhcurveto
          163 -556 75 callsubr
        </CharString>
        <CharString name="Otilde">
          -55 callgsubr
          -38 689 rmoveto
          29 14 3 533 callgsubr
          2 3 8 hvcurveto
          39 vlineto
          49 -13 29 -49 -28 -14 -9 -35 -16 vhcurveto
          -37 -17 -5 -8 -14 hhcurveto
          -20 -5 284 callsubr
          25 18 7 44 17 vhcurveto
          endchar
        </CharString>
        <CharString name="P">
          32 162 301 rmoveto
          -7 -3 3 6 hvcurveto
          260 7 callsubr
          155 375 callgsubr
          -105 vlineto
          -56 -27 -30 -57 vhcurveto
          -179 -301 461 callsubr
          213 7 callsubr
          165 hlineto
          91 318 callsubr
          111 304 callgsubr
          -91 vhcurveto
          -234 16 callgsubr
          endchar
        </CharString>
        <CharString name="Pi">
          128 202 210 callgsubr
          554 7 callsubr
          171 hlineto
          6 3 -3 -6 hvcurveto
          -554 vlineto
          -46 callgsubr
          554 vlineto
          6 4 3 6 vhcurveto
          83 hlineto
          10 4 6 9 hvcurveto
          37 370 callsubr
          -521 hlineto
          -11 492 callsubr
          -37 vlineto
          -9 4 -6 11 vhcurveto
          82 hlineto
          6 4 -2 -6 hvcurveto
          -555 -11 callgsubr
          endchar
        </CharString>
        <CharString name="Q">
          66 421 -133 rmoveto
          9 6 6 10 -6 hvcurveto
          -71 119 rlineto
          79 6 49 54 86 vvcurveto
          347 295 callsubr
          -119 669 callsubr
          -347 vlineto
          -93 56 -55 91 vhcurveto
          62 hlineto
          72 -119 rlineto
          -10 6 6 -4 14 hhcurveto
          -151 197 15 callgsubr
          endchar
        </CharString>
        <CharString name="R">
          -29 callsubr
          endchar
        </CharString>
        <CharString name="Racute">
          -29 callsubr
          209 836 346 callsubr
        </CharString>
        <CharString name="Rcaron">
          -29 callsubr
          146 707 608 callsubr
          -2 5 -7 hhcurveto
          -35 96 callgsubr
          64 -107 rlineto
          -7 5 5 -3 10 hhcurveto
          endchar
        </CharString>
        <CharString name="S">
          61 72 148 -44 callgsubr
        </CharString>
        <CharString name="Sacute">
          61 321 836 288 callgsubr
          -5 3 330 callsubr
          -309 -688 -44 callgsubr
        </CharString>
        <CharString name="Scaron">
          61 292 707 rmoveto
          9 275 callsubr
          -5 379 callsubr
          -185 -559 -44 callgsubr
        </CharString>
        <CharString name="Scircumflex">
          61 315 233 callsubr
          -307 -571 -44 callgsubr
        </CharString>
        <CharString name="Sigma">
          -9 227 317 rmoveto
          -157 -239 rlineto
          -5 -9 -3 -7 -14 vvcurveto
          -34 371 callsubr
          338 hlineto
          11 4 5 8 hvcurveto
          40 172 callsubr
          -267 4 hlineto
          153 228 6 10 0 16 -6 11 rlinecurve
          -153 233 rlineto
          4 267 vlineto
          11 3 6 9 hvcurveto
          40 195 callgsubr
          -338 97 callsubr
          -35 vlineto
          -13 2 -8 5 -8 vhcurveto
          158 -244 rlineto
          endchar
        </CharString>
        <CharString name="T">
          86 callgsubr
          endchar
        </CharString>
        <CharString name="Tbar">
          9 247 210 callgsubr
          289 666 callsubr
          91 hlineto
          353 callgsubr
          29 195 callgsubr
          -91 hlineto
          -8 -2 3 7 hvcurveto
          191 666 callsubr
          140 103 callgsubr
          -373 470 callsubr
          140 160 callsubr
          -191 47 callsubr
          -85 97 callsubr
          -29 124 callsubr
          85 160 callsubr
          -289 -11 callgsubr
          endchar
        </CharString>
        <CharString name="Tcaron">
          86 callgsubr
          7 707 271 callgsubr
          -2 5 -8 hhcurveto
          -34 hlineto
          -7 -4 -2 -6 -3 hvcurveto
          -47 -88 -48 88 rlineto
          6 -2 -4 2 -8 360 callgsubr
          endchar
        </CharString>
        <CharString name="Thorn">
          8 164 hmoveto
          9 4 3 11 hvcurveto
          109 vlineto
          558 callgsubr
          106 hlineto
          91 318 callsubr
          82 304 callgsubr
          -91 vhcurveto
          -106 hlineto
          -8 -3 3 6 hvcurveto
          110 vlineto
          514 callgsubr
          69 197 rmoveto
          -7 -3 3 6 hvcurveto
          231 7 callsubr
          97 375 callgsubr
          -76 vlineto
          -56 -27 -30 -57 vhcurveto
          endchar
        </CharString>
        <CharString name="U">
          -63 callgsubr
          endchar
        </CharString>
        <CharString name="Uacute">
          -63 callgsubr
          -138 193 rmoveto
          -10 -7 -4 -9 466 callgsubr
          -5 2 -5 9 hhcurveto
          33 hlineto
          7 8 4 6 4 hvcurveto
          88 571 callgsubr
        </CharString>
        <CharString name="Ubreve">
          -63 callgsubr
          -293 182 rmoveto
          -12 vlineto
          -72 33 -34 63 vhcurveto
          17 hlineto
          62 34 32 callgsubr
          -4 3 -6 vhcurveto
          -28 433 callsubr
          endchar
        </CharString>
        <CharString name="Ucircumflex">
          -63 callgsubr
          -150 183 rmoveto
          7 -5 -6 3 -10 hhcurveto
          -34 hlineto
          -10 -5 -3 -7 -5 hvcurveto
          -64 -107 rlineto
          -7 643 callgsubr
          33 hlineto
          7 4 2 6 3 hvcurveto
          47 88 48 -88 rlineto
          -6 3 3 -2 8 hhcurveto
          34 hlineto
          8 392 callsubr
          endchar
        </CharString>
        <CharString name="Udieresis">
          -63 callgsubr
          -138 78 210 callsubr
        </CharString>
        <CharString name="Ugrave">
          -63 callgsubr
          -217 180 599 callgsubr
          -9 hhcurveto
          -61 hlineto
          -8 227 callsubr
          8 3 5 9 -5 hvcurveto
          endchar
        </CharString>
        <CharString name="Uhungarumlaut">
          -63 callgsubr
          -72 193 rmoveto
          -9 246 callsubr
          -5 5 -8 179 callgsubr
        </CharString>
        <CharString name="Umacron">
          -63 callgsubr
          -88 103 rmoveto
          10 4 5 9 hvcurveto
          26 vlineto
          9 -4 5 -10 208 callsubr
        </CharString>
        <CharString name="Uogonek">
          60 421 643 rmoveto
          253 callsubr
          -478 160 callgsubr
          -94 54 callgsubr
          478 -62 callsubr
          -481 vlineto
          -93 56 -55 708 callsubr
          -47 -67 rlineto
          -21 -16 423 callgsubr
          49 67 rlineto
          16 hlineto
          91 318 callsubr
          482 vlineto
          9 -4 4 -10 vhcurveto
          endchar
        </CharString>
        <CharString name="Uring">
          -63 callgsubr
          -196 87 684 callsubr
          27 vhcurveto
          13 hlineto
          28 11 -14 -29 hvcurveto
          -23 vlineto
          -29 -11 354 callsubr
        </CharString>
        <CharString name="Utilde">
          -63 callgsubr
          -175 110 rmoveto
          29 14 2 533 callgsubr
          526 callgsubr
          -14 29 -49 501 callsubr
          -20 -6 284 callsubr
          26 719 callsubr
        </CharString>
        <CharString name="V">
          12 289 hmoveto
          8 5 3 11 3 hvcurveto
          177 614 rlineto
          10 2 -4 5 -10 hhcurveto
          -50 hlineto
          -7 callgsubr
          -2 hvcurveto
          -149 -547 rlineto
          -4 hlineto
          -149 547 rlineto
          11 -2 -4 3 -10 hhcurveto
          -49 hlineto
          -11 -4 -5 -10 2 hvcurveto
          177 -614 rlineto
          -11 3 5 -3 9 hhcurveto
          endchar
        </CharString>
        <CharString name="W">
          303 -49 callsubr
          endchar
        </CharString>
        <CharString name="Wacute">
          304 -49 callsubr
          287 836 406 callgsubr
          33 hlineto
          7 570 callgsubr
        </CharString>
        <CharString name="Wcircumflex">
          304 -49 callsubr
          266 826 rmoveto
          7 -5 -6 3 -9 235 callsubr
          47 -88 rlineto
          -6 3 4 -2 7 hhcurveto
          34 hlineto
          8 1 5 7 -4 hvcurveto
          endchar
        </CharString>
        <CharString name="Wdieresis">
          304 -49 callsubr
          278 721 50 callsubr
        </CharString>
        <CharString name="Wgrave">
          304 -49 callsubr
          190 823 rmoveto
          9 -4 -8 4 -9 hhcurveto
          -61 hlineto
          -8 -4 470 callgsubr
        </CharString>
        <CharString name="X">
          20 402 13 rmoveto
          -10 4 6 -3 9 hhcurveto
          53 hlineto
          9 4 7 8 -5 hvcurveto
          -174 322 167 291 rlineto
          8 4 -4 7 -9 hhcurveto
          -52 hlineto
          -10 -6 -3 -11 -6 hvcurveto
          -132 -246 rlineto
          -4 hlineto
          -134 246 rlineto
          11 -5 -8 3 -9 hhcurveto
          -50 hlineto
          -9 -5 -7 -8 5 hvcurveto
          166 -292 -175 -321 rlineto
          -8 -4 4 -7 9 hhcurveto
          52 hlineto
          9 6 3 10 5 hvcurveto
          142 268 rlineto
          4 hlineto
          endchar
        </CharString>
        <CharString name="Y">
          -15 callsubr
          endchar
        </CharString>
        <CharString name="Yacute">
          -15 callsubr
          74 836 rmoveto
          -9 127 callsubr
          7 -5 6 -8 hhcurveto
          endchar
        </CharString>
        <CharString name="Ycircumflex">
          -15 callsubr
          58 826 rmoveto
          7 -5 -5 3 -10 hhcurveto
          -34 180 callgsubr
          47 -88 rlineto
          -6 3 4 -2 7 hhcurveto
          34 hlineto
          9 392 callsubr
          endchar
        </CharString>
        <CharString name="Ydieresis">
          -15 callsubr
          74 721 166 callsubr
          -171 -101 166 callsubr
          endchar
        </CharString>
        <CharString name="Ygrave">
          -15 callsubr
          -7 823 599 callgsubr
          -9 hhcurveto
          -60 hlineto
          -9 459 callgsubr
          7 -4 8 535 callsubr
        </CharString>
        <CharString name="Z">
          9 callgsubr
          endchar
        </CharString>
        <CharString name="Zacute">
          9 callgsubr
          271 786 rmoveto
          -10 -7 -4 -9 -5 hvcurveto
          -58 -102 rlineto
          -9 -4 2 491 callgsubr
        </CharString>
        <CharString name="Zcaron">
          9 callgsubr
          203 657 271 callgsubr
          -1 5 -9 hhcurveto
          -34 96 callgsubr
          64 -107 rlineto
          -7 5 5 -3 10 hhcurveto
          endchar
        </CharString>
        <CharString name="Zdotaccent">
          9 callgsubr
          188 675 245 callsubr
          endchar
        </CharString>
        <CharString name="a">
          13 -52 callgsubr
          endchar
        </CharString>
        <CharString name="aacute">
          13 -52 callgsubr
          109 703 rmoveto
          -10 -7 277 callgsubr
          2 -5 9 hhcurveto
          32 hlineto
          8 7 149 callsubr
          -9 hhcurveto
          endchar
        </CharString>
        <CharString name="abreve">
          13 167 680 rmoveto
          229 callsubr
          92 -692 rmoveto
          -13 callsubr
          -217 -41 callsubr
          158 156 rmoveto
          -58 -32 -34 -61 vhcurveto
          -57 157 callgsubr
          140 160 callsubr
          endchar
        </CharString>
        <CharString name="acircumflex">
          13 -52 callgsubr
          95 693 62 callgsubr
          endchar
        </CharString>
        <CharString name="acute">
          -217 145 703 345 callsubr
        </CharString>
        <CharString name="acute.uc">
          -182 163 394 callgsubr
          7 -5 6 -8 hhcurveto
          endchar
        </CharString>
        <CharString name="adieresis">
          13 -52 callgsubr
          114 203 callgsubr
        </CharString>
        <CharString name="ae">
          37 callgsubr
          endchar
        </CharString>
        <CharString name="aeacute">
          37 callgsubr
          22 552 295 callgsubr
          32 hlineto
          8 7 149 callsubr
          -9 hhcurveto
          endchar
        </CharString>
        <CharString name="agrave">
          13 -52 callgsubr
          42 690 599 callgsubr
          -9 hhcurveto
          -61 hlineto
          -8 -5 -6 -8 7 458 callsubr
          34 524 callsubr
        </CharString>
        <CharString name="amacron">
          13 -52 callgsubr
          171 613 152 callgsubr
        </CharString>
        <CharString name="ampersand">
          109 461 10 rmoveto
          -7 6 9 -3 8 hhcurveto
          58 hlineto
          7 0 7 4 -3 hvcurveto
          -194 227 rlineto
          180 hlineto
          11 4 4 9 hvcurveto
          37 266 callsubr
          -234 hlineto
          -58 67 rlineto
          -29 32 -15 28 38 vvcurveto
          29 vlineto
          56 28 29 55 vhcurveto
          16 hlineto
          52 28 -29 -56 hvcurveto
          -41 398 callsubr
          45 hlineto
          9 603 callgsubr
          42 vlineto
          93 -56 53 -91 vhcurveto
          -27 hlineto
          -91 -60 -53 -93 hvcurveto
          -29 vlineto
          -47 14 -34 30 -36 vhcurveto
          -74 -5 -30 -63 -60 vvcurveto
          -77 vlineto
          -93 56 -53 91 vhcurveto
          75 hlineto
          65 41 24 49 17 hvcurveto
          -189 -8 rmoveto
          -57 -29 28 56 hvcurveto
          70 vlineto
          57 23 29 49 3 vhcurveto
          157 -183 rlineto
          -40 -7 -26 -20 -44 hhcurveto
          endchar
        </CharString>
        <CharString name="aogonek">
          13 548 callsubr
          140 160 callsubr
          -281 vlineto
          -58 -32 -34 -61 vhcurveto
          -65 446 rmoveto
          706 callsubr
          -214 vlineto
          -93 56 -55 708 callsubr
          51 172 callgsubr
          -36 hlineto
          -53 -77 rlineto
          -20 -15 2 -34 33 hhcurveto
          35 42 15 19 1 hvcurveto
          10 2 -6 3 -19 hhcurveto
          -1 -7 -23 -1 -10 hhcurveto
          -2 31 46 23 17 hvcurveto
          31 570 callsubr
        </CharString>
        <CharString name="approxequal">
          41 170 393 rmoveto
          219 callsubr
          -171 vmoveto
          219 callsubr
          endchar
        </CharString>
        <CharString name="aring">
          13 179 615 rmoveto
          -42 21 512 callgsubr
          -21 -17 -41 hvcurveto
          32 411 callgsubr
          48 -623 rmoveto
          -13 callsubr
          -217 -41 callsubr
          158 156 rmoveto
          -58 -32 -34 -61 vhcurveto
          -57 157 callgsubr
          140 160 callsubr
          endchar
        </CharString>
        <CharString name="asciicircum">
          -15 353 378 rmoveto
          -10 6 4 -4 10 hhcurveto
          40 hlineto
          10 6 5 11 -6 hvcurveto
          -128 243 rlineto
          15 -7 -7 5 -16 hhcurveto
          -52 hlineto
          -16 -7 -5 -15 -7 hvcurveto
          -128 -243 rlineto
          -11 -6 6 -5 10 hhcurveto
          40 hlineto
          10 4 4 10 6 hvcurveto
          114 219 rlineto
          endchar
        </CharString>
        <CharString name="asciitilde">
          41 170 309 rmoveto
          57 74 -30 62 hhcurveto
          30 29 6 9 22 hvcurveto
          16 7 5 5 12 vvcurveto
          31 vlineto
          7 -4 5 -6 vhcurveto
          -13 -32 -25 -45 -63 -68 31 -62 hhcurveto
          -30 -29 -6 -9 -22 hvcurveto
          -15 -7 -6 -5 -13 vvcurveto
          -30 vlineto
          -7 4 -5 7 vhcurveto
          13 32 24 44 hhcurveto
          endchar
        </CharString>
        <CharString name="asterisk">
          -90 230 630 rmoveto
          10 206 callgsubr
          -30 hlineto
          -9 -4 -3 -10 hvcurveto
          -14 vlineto
          -57 26 -51 3 -9 vhcurveto
          5 9 23 51 57 vvcurveto
          -127 -206 rmoveto
          -6 -9 2 -6 7 -4 24 -18 rcurveline
          8 -5 6 0 5 7 8 12 rcurveline
          34 46 8 57 3 9 -9 -5 -48 -27 -34 -47 rrcurveto
          -24 145 rmoveto
          -10 3 -5 -3 -2 -8 -10 -29 rcurveline
          -3 -8 3 -6 8 -3 14 -4 rcurveline
          -18 54 57 10 9 hhcurveto
          -7 7 -41 37 -55 18 rrcurveto
          236 -48 rmoveto
          10 3 2 6 -3 8 -9 29 rcurveline
          -3 9 -4 2 -10 -3 -14 -4 rcurveline
          -55 -17 -39 -41 -8 -6 10 -2 56 -6 54 18 rrcurveto
          -66 -132 rmoveto
          7 -8 5 1 7 4 25 18 rcurveline
          7 5 1 6 -5 7 -8 12 rcurveline
          -34 46 -51 25 -8 6 1 -10 11 -55 35 -46 rrcurveto
          endchar
        </CharString>
        <CharString name="at">
          257 462 233 rmoveto
          -58 -32 -34 -60 vhcurveto
          -2 507 callsubr
          88 vlineto
          56 28 31 56 vhcurveto
          84 hlineto
          8 2 -3 -7 hvcurveto
          46 -451 rmoveto
          353 callgsubr
          20 399 callgsubr
          -182 hlineto
          -111 -91 78 127 hvcurveto
          157 vlineto
          127 87 78 111 vhcurveto
          191 hlineto
          70 48 -40 -73 hvcurveto
          -221 vlineto
          -59 -31 -32 -57 vhcurveto
          -5 hlineto
          -8 -6 3 7 hvcurveto
          305 vlineto
          22 callsubr
          -151 hlineto
          -84 380 callsubr
          -84 vlineto
          -92 56 -52 79 38 46 11 42 20 vhcurveto
          4 -15 hlineto
          -26 22 -13 23 vhcurveto
          39 hlineto
          79 55 53 81 hvcurveto
          230 vlineto
          92 -66 64 -97 vhcurveto
          -198 hlineto
          -129 -115 -97 -152 hvcurveto
          -165 vlineto
          -157 120 -90 132 vhcurveto
          endchar
        </CharString>
        <CharString name="atilde">
          14 -52 callgsubr
          -46 653 rmoveto
          -49 14 -28 49 26 17 6 44 18 vhcurveto
          30 14 3 625 callgsubr
          6 vhcurveto
          21 hlineto
          7 354 callgsubr
          -21 hlineto
          -7 -3 -2 -9 hvcurveto
          endchar
        </CharString>
        <CharString name="b">
          16 69 587 callgsubr
          221 hlineto
          91 318 callsubr
          221 vlineto
          92 -56 660 callsubr
          226 hlineto
          -82 callsubr
          83 -625 rmoveto
          -7 -3 3 6 hvcurveto
          288 vlineto
          57 32 34 61 vhcurveto
          59 hlineto
          57 28 -30 -57 hvcurveto
          -214 vlineto
          -56 -28 -31 -57 vhcurveto
          endchar
        </CharString>
        <CharString name="backslash">
          -94 275 15 rmoveto
          -11 702 callgsubr
          42 hlineto
          9 6 5 11 -4 hvcurveto
          -28 73 -166 466 -28 73 rrcurveto
          10 -5 -4 5 -10 hhcurveto
          -43 hlineto
          -10 -4 -6 -11 4 hvcurveto
          endchar
        </CharString>
        <CharString name="bar">
          -280 134 629 rmoveto
          22 callsubr
          -27 612 callsubr
          27 hlineto
          205 callsubr
          endchar
        </CharString>
        <CharString name="braceleft">
          -191 227 643 rmoveto
          -85 -39 -55 -93 hvcurveto
          -123 vlineto
          -52 -20 -18 -36 -11 -3 -5 -9 vhcurveto
          -36 vlineto
          -9 3 -5 11 36 20 -18 -51 vhcurveto
          -123 vlineto
          -93 39 -55 85 vhcurveto
          5 hlineto
          353 callgsubr
          27 195 callgsubr
          -3 hlineto
          -51 -14 30 57 hvcurveto
          134 vlineto
          50 -19 35 -38 11 vhcurveto
          39 13 18 32 52 vvcurveto
          134 vlineto
          57 14 30 51 vhcurveto
          3 hlineto
          353 callgsubr
          27 195 callgsubr
          endchar
        </CharString>
        <CharString name="braceright">
          -191 176 495 rmoveto
          93 -39 55 -85 vhcurveto
          -5 97 callsubr
          -27 124 callsubr
          3 hlineto
          50 15 -30 -57 hvcurveto
          -134 vlineto
          -52 18 -32 39 -13 vhcurveto
          -38 -11 -19 -35 -50 vvcurveto
          -134 vlineto
          -57 -15 -30 -50 vhcurveto
          -3 97 callsubr
          -27 124 callsubr
          5 hlineto
          85 39 55 93 hvcurveto
          123 vlineto
          51 20 18 36 11 3 5 9 vhcurveto
          36 352 callgsubr
          -36 -20 18 52 vhcurveto
          endchar
        </CharString>
        <CharString name="bracketleft">
          -197 217 -100 rmoveto
          10 4 5 8 642 callsubr
          -78 671 callgsubr
          617 432 callgsubr
          78 hlineto
          409 callsubr
          25 370 callsubr
          -136 hlineto
          -10 273 callsubr
          -715 vlineto
          -10 4 29 callgsubr
          endchar
        </CharString>
        <CharString name="bracketright">
          -197 60 -87 rmoveto
          -8 298 callgsubr
          136 hlineto
          9 4 4 10 hvcurveto
          715 vlineto
          10 -4 4 -9 vhcurveto
          -136 97 callsubr
          -25 124 callsubr
          78 hlineto
          7 3 -3 -7 hvcurveto
          -617 47 callsubr
          -78 97 callsubr
          endchar
        </CharString>
        <CharString name="breve">
          -160 63 680 rmoveto
          -72 32 -34 63 vhcurveto
          17 hlineto
          63 33 32 callgsubr
          -3 3 -7 vhcurveto
          -28 hlineto
          -7 -3 -3 -8 hvcurveto
          endchar
        </CharString>
        <CharString name="breve.uc">
          -138 74 825 rmoveto
          -12 vlineto
          -72 32 -34 63 vhcurveto
          17 hlineto
          63 33 32 callgsubr
          -3 3 -7 vhcurveto
          -28 hlineto
          -7 -3 -3 -8 hvcurveto
          endchar
        </CharString>
        <CharString name="brokenbar">
          -285 133 255 rmoveto
          22 callsubr
          -29 hlineto
          -7 callgsubr
          hvcurveto
          -241 -11 callgsubr
          29 hlineto
          205 callsubr
          615 vmoveto
          22 callsubr
          -29 hlineto
          -7 callgsubr
          hvcurveto
          -241 -11 callgsubr
          29 hlineto
          205 callsubr
          endchar
        </CharString>
        <CharString name="bullet">
          -215 197 372 rmoveto
          23 -14 13 -22 vhcurveto
          -43 hlineto
          -23 -13 -13 -23 hvcurveto
          -105 vlineto
          -24 13 -12 23 vhcurveto
          43 hlineto
          22 14 12 24 hvcurveto
          endchar
        </CharString>
        <CharString name="c">
          34 callsubr
          endchar
        </CharString>
        <CharString name="cacute">
          34 callsubr
          -88 690 rmoveto
          -9 -7 -4 -9 -6 hvcurveto
          -57 255 callsubr
        </CharString>
        <CharString name="caron">
          -162 148 574 223 callgsubr
        </CharString>
        <CharString name="caron.uc">
          -162 148 707 223 callgsubr
        </CharString>
        <CharString name="ccaron">
          34 callsubr
          -146 561 105 callgsubr
        </CharString>
        <CharString name="ccedilla">
          -95 352 446 rmoveto
          185 callgsubr
          37 370 callsubr
          -145 -41 callsubr
          26 hlineto
          -37 -42 rlineto
          422 callsubr
          -21 -12 -8 -39 vhcurveto
          -23 hlineto
          -11 -2 540 callgsubr
          2 -4 11 vhcurveto
          30 hlineto
          54 32 501 callgsubr
          41 43 rlineto
          66 hlineto
          11 3 4 9 hvcurveto
          37 vlineto
          169 callgsubr
          endchar
        </CharString>
        <CharString name="cdotaccent">
          34 callsubr
          -169 577 rmoveto
          -10 4 240 callsubr
          10 hvcurveto
          98 vlineto
          10 -4 3 428 callsubr
          endchar
        </CharString>
        <CharString name="cedilla">
          -235 70 -42 rmoveto
          -18 -15 9 -26 24 hhcurveto
          16 hlineto
          39 11 698 callgsubr
          -21 -12 -8 -38 442 callsubr
          -28 17 -48 vhcurveto
          4 vlineto
          59 63 rlineto
          -54 hlineto
          endchar
        </CharString>
        <CharString name="cedilla.uc">
          -187 95 -42 rmoveto
          422 callsubr
          -22 -12 -7 -39 vhcurveto
          -24 hlineto
          -10 -2 540 callgsubr
          2 29 callgsubr
          31 hlineto
          53 33 501 callgsubr
          59 63 rlineto
          -53 hlineto
          endchar
        </CharString>
        <CharString name="cent">
          -75 276 -91 rmoveto
          8 5 3 10 hvcurveto
          78 78 vlineto
          11 4 5 9 hvcurveto
          37 vlineto
          8 -4 5 -11 vhcurveto
          -152 157 callgsubr
          152 hlineto
          11 4 5 8 hvcurveto
          37 vlineto
          9 -12 5 -10 vhcurveto
          -71 88 hlineto
          9 -5 4 -8 vhcurveto
          -36 hlineto
          -8 215 callsubr
          -87 -26 vlineto
          -88 -54 -57 -91 hvcurveto
          -214 vlineto
          -91 54 -57 88 vhcurveto
          26 -77 hlineto
          -10 5 -4 8 vhcurveto
          endchar
        </CharString>
        <CharString name="circumflex">
          -162 203 693 rmoveto
          7 -5 -6 3 -10 hhcurveto
          -34 180 callgsubr
          47 -88 rlineto
          -6 3 5 -2 6 689 callsubr
        </CharString>
        <CharString name="circumflex.uc">
          -162 203 826 rmoveto
          7 -5 -6 3 -10 hhcurveto
          -34 180 callgsubr
          47 -88 rlineto
          -6 3 5 -2 6 689 callsubr
        </CharString>
        <CharString name="colon">
          349 callgsubr
          -120 629 callgsubr
          483 vmoveto
          417 callsubr
          endchar
        </CharString>
        <CharString name="comma">
          349 callgsubr
          -226 vlineto
          -10 5 -3 5 5 4 3 5 3 vhcurveto
          40 94 rlineto
          10 24 5 15 19 vvcurveto
          endchar
        </CharString>
        <CharString name="commaaccent">
          -494 270 -45 54 callsubr
          endchar
        </CharString>
        <CharString name="copyright">
          223 200 643 rmoveto
          -79 -51 -50 -81 hvcurveto
          -381 vlineto
          -81 51 -50 79 vhcurveto
          317 hlineto
          80 51 50 81 hvcurveto
          381 vlineto
          81 -51 50 -80 vhcurveto
          -306 -595 rmoveto
          -59 -30 31 59 hvcurveto
          367 vlineto
          59 30 31 59 vhcurveto
          295 hlineto
          59 30 -31 -59 hvcurveto
          -367 vlineto
          -59 -30 -31 -59 vhcurveto
          -13 354 rmoveto
          78 -42 34 -76 vhcurveto
          -34 hlineto
          -76 -42 -34 -78 hvcurveto
          -165 vlineto
          -77 42 -35 76 vhcurveto
          34 hlineto
          76 42 35 77 hvcurveto
          26 vlineto
          9 -4 2 -6 vhcurveto
          -32 hlineto
          -6 -4 -2 -9 hvcurveto
          -19 vlineto
          -59 -18 -13 -58 vhcurveto
          -14 hlineto
          -58 -18 13 59 hvcurveto
          152 vlineto
          58 18 14 58 vhcurveto
          14 hlineto
          58 18 -14 -58 hvcurveto
          -16 vlineto
          -8 4 -3 6 vhcurveto
          32 hlineto
          6 4 3 8 hvcurveto
          endchar
        </CharString>
        <CharString name="d">
          16 125 callsubr
          endchar
        </CharString>
        <CharString name="dagger">
          -73 216 hmoveto
          9 5 3 11 1 hvcurveto
          4 27 11 223 60 vvcurveto
          32 -4 46 -6 22 206 callsubr
          129 9 rlineto
          -5 -24 -4 -47 -28 vvcurveto
          -61 11 -223 4 -27 vhcurveto
          -11 1 5 -3 9 hhcurveto
          endchar
        </CharString>
        <CharString name="daggerdbl">
          -73 182 424 rmoveto
          -5 -25 -3 -50 -29 vvcurveto
          -30 3 -48 5 -24 vhcurveto
          -129 9 rlineto
          -11 1 -3 -6 -9 vvcurveto
          -39 vlineto
          -9 3 -5 11 2 vhcurveto
          131 9 -11 -157 rlineto
          -11 -1 6 -3 9 hhcurveto
          45 hlineto
          205 callsubr
          -11 158 133 -10 rlineto
          11 -2 3 5 9 vvcurveto
          39 vlineto
          9 -3 6 -11 -1 vhcurveto
          -132 -10 rlineto
          6 24 4 47 31 vvcurveto
          32 -4 50 -6 23 206 callsubr
          endchar
        </CharString>
        <CharString name="dcaron">
          69 125 callsubr
          365 690 279 callsubr
          -44 hlineto
          -8 215 callsubr
          -212 vlineto
          -10 5 -2 6 4 4 2 5 3 vhcurveto
          33 95 rlineto
          9 718 callsubr
        </CharString>
        <CharString name="dcroat">
          52 369 156 rmoveto
          -58 -33 -34 -60 vhcurveto
          -61 54 callgsubr
          145 vlineto
          57 27 30 56 vhcurveto
          61 hlineto
          60 33 -34 -57 hvcurveto
          -107 -292 rmoveto
          52 172 callgsubr
          -39 hlineto
          -11 4 -3 266 callgsubr
          3 11 hvcurveto
          526 vlineto
          7 618 callgsubr
          60 hlineto
          11 4 4 9 hvcurveto
          30 vlineto
          9 -4 4 -11 vhcurveto
          -60 hlineto
          -8 -3 3 7 hvcurveto
          73 201 callgsubr
          -73 232 callsubr
          -152 hlineto
          -10 654 callsubr
          -30 vlineto
          -9 3 29 callgsubr
          152 397 callgsubr
          -146 -4 vlineto
          32 -15 -36 21 -52 hhcurveto
          -55 hlineto
          -92 -56 -55 -92 hvcurveto
          -152 vlineto
          -93 56 -55 92 vhcurveto
          endchar
        </CharString>
        <CharString name="degree">
          -173 167 545 rmoveto
          -13 hlineto
          -24 -5 6 23 hvcurveto
          65 vlineto
          24 5 5 24 vhcurveto
          13 hlineto
          23 6 -5 -24 hvcurveto
          -65 vlineto
          -23 -6 -6 -23 vhcurveto
          17 -34 rmoveto
          30 20 18 31 hvcurveto
          97 vlineto
          30 -20 17 -30 vhcurveto
          -48 hlineto
          -31 -18 -17 -30 hvcurveto
          -97 vlineto
          -31 18 -18 31 vhcurveto
          endchar
        </CharString>
        <CharString name="dieresis">
          -128 233 588 rmoveto
          -10 5 330 callgsubr
          -5 -4 -10 hvcurveto
          -170 -101 rmoveto
          -10 4 330 callgsubr
          -4 -4 -10 hvcurveto
          endchar
        </CharString>
        <CharString name="dieresis.uc">
          -141 227 721 rmoveto
          601 callgsubr
          42 hlineto
          9 4 4 10 hvcurveto
          102 vlineto
          10 -4 3 -9 vhcurveto
          -42 hlineto
          -9 -5 -4 -10 hvcurveto
          -171 -101 rmoveto
          -10 5 330 callgsubr
          -5 -4 -10 hvcurveto
          endchar
        </CharString>
        <CharString name="divide">
          2 221 433 rmoveto
          601 callgsubr
          27 433 callgsubr
          58 278 callsubr
          -27 126 callsubr
          188 -197 712 callgsubr
          4 -11 vhcurveto
          -321 hlineto
          -11 -4 -4 -9 hvcurveto
          -26 339 callgsubr
          133 -143 rmoveto
          125 callgsubr
          27 hlineto
          205 callsubr
          57 vlineto
          22 callsubr
          -27 hlineto
          -7 callgsubr
          hvcurveto
          endchar
        </CharString>
        <CharString name="dollar">
          17 281 -98 461 callsubr
          84 7 vlineto
          90 57 56 92 hvcurveto
          58 vlineto
          116 -69 30 -79 3 vhcurveto
          -62 2 rlineto
          -65 2 -39 16 64 vvcurveto
          47 vlineto
          64 28 30 61 vhcurveto
          59 hlineto
          61 28 -30 -60 hvcurveto
          -19 vlineto
          -11 251 callsubr
          11 hvcurveto
          25 vlineto
          91 -56 57 -87 vhcurveto
          -7 85 hlineto
          22 callsubr
          -34 hlineto
          -7 callgsubr
          hvcurveto
          -85 -24 vlineto
          -91 -56 -56 -92 hvcurveto
          -55 vlineto
          -120 71 -27 83 -3 vhcurveto
          55 -1 rlineto
          64 -3 41 -17 -67 vvcurveto
          -47 vlineto
          -62 -29 -30 -60 vhcurveto
          -63 hlineto
          -60 -29 30 60 hvcurveto
          22 201 callgsubr
          -28 vlineto
          -91 56 -57 90 vhcurveto
          24 -84 hlineto
          125 callgsubr
          endchar
        </CharString>
        <CharString name="dotaccent">
          -296 63 590 rmoveto
          -10 4 240 callsubr
          10 hvcurveto
          98 vlineto
          10 -5 3 -8 477 callgsubr
          endchar
        </CharString>
        <CharString name="dotaccent.uc">
          -240 88 383 callsubr
        </CharString>
        <CharString name="dotlessi">
          -269 76 704 callsubr
          8 vhcurveto
          46 hlineto
          10 3 3 11 hvcurveto
          482 201 callgsubr
          endchar
        </CharString>
        <CharString name="dvDDH_DDHA">
          -7 154 callgsubr
          322 -98 callsubr
          -71 vlineto
          -6 186 callsubr
          -110 hlineto
          -94 -53 -55 -94 hvcurveto
          -81 vlineto
          -57 20 -44 38 -26 vhcurveto
          -36 -22 -20 -38 -53 vvcurveto
          -77 vlineto
          377 callgsubr
          95 hlineto
          597 callgsubr
          13 vlineto
          73 -30 38 -79 -77 -25 -40 -68 vhcurveto
          -15 620 callgsubr
          15 vhcurveto
          24 hlineto
          10 5 4 11 hvcurveto
          15 vlineto
          39 8 17 37 38 8 -18 -38 vhcurveto
          -11 vlineto
          -54 -22 -24 -55 vhcurveto
          -87 hlineto
          -60 -29 30 59 hvcurveto
          77 118 callgsubr
          89 hlineto
          92 45 48 87 hvcurveto
          12 649 callgsubr
          -78 -77 -25 -40 -68 vhcurveto
          -16 620 callgsubr
          15 vhcurveto
          24 -26 callgsubr
          15 vlineto
          38 8 18 37 38 8 -18 -39 vhcurveto
          -10 vlineto
          -54 -22 -24 -55 vhcurveto
          -88 hlineto
          -59 -29 30 58 hvcurveto
          82 118 callgsubr
          152 hlineto
          17 14 12 20 hvcurveto
          109 93 callgsubr
          endchar
        </CharString>
        <CharString name="dvDD_GA">
          43 -85 callsubr
          364 286 callgsubr
          -166 382 callsubr
          -52 -23 122 callgsubr
          203 317 callgsubr
          101 529 callsubr
          7 vhcurveto
          92 133 callsubr
        </CharString>
        <CharString name="dvD_BHA.aSimp">
          491 423 -49 rmoveto
          232 callgsubr
          -35 hlineto
          -53 callsubr
          244 803 rmoveto
          23 callgsubr
          -498 hlineto
          96 callsubr
          78 hlineto
          43 25 -22 -53 147 callsubr
          183 hlineto
          7 3 -4 -7 hvcurveto
          -249 -67 callgsubr
          endchar
        </CharString>
        <CharString name="dvH_VA.aTrad">
          53 428 223 rmoveto
          -61 vlineto
          -53 -15 -36 -58 vhcurveto
          -7 hlineto
          -51 1 -23 25 47 vvcurveto
          54 24 22 49 1 vhcurveto
          -350 400 -73 callgsubr
          352 -98 callsubr
          -72 vlineto
          -7 -4 -4 -7 vhcurveto
          -153 hlineto
          -84 473 callgsubr
          -26 -32 -67 vvcurveto
          -95 vlineto
          -93 54 -53 110 vhcurveto
          255 722 callgsubr
          10 hvcurveto
          29 104 callgsubr
          -250 hlineto
          -71 648 callsubr
          92 vlineto
          57 24 34 56 vhcurveto
          24 hlineto
          -14 -18 -9 -26 -37 vvcurveto
          -82 49 -44 91 vhcurveto
          8 hlineto
          95 44 56 93 hvcurveto
          86 vlineto
          20 -13 9 -18 vhcurveto
          -260 442 callgsubr
          113 -101 callsubr
          endchar
        </CharString>
        <CharString name="dvK_SHA.a">
          629 574 458 rmoveto
          -79 hlineto
          -47 644 callsubr
          -4 140 7 callgsubr
          80 -101 callsubr
          -490 hlineto
          -106 callgsubr
          296 95 callgsubr
          144 hlineto
          9 12 callsubr
          82 467 callgsubr
          51 52 19 -21 -51 vhcurveto
          -102 vlineto
          -63 -36 -22 -50 vhcurveto
          -129 -25 callsubr
          -44 vlineto
          27 -28 149 -206 rlineto
          -6 3 5 716 callsubr
          -2 5 -3 3 hvcurveto
          -164 221 rlineto
          71 hlineto
          96 52 50 96 hvcurveto
          101 421 callsubr
          -17 -11 -13 -17 hvcurveto
          -578 vlineto
          -11 5 29 callgsubr
          38 hlineto
          10 5 4 11 hvcurveto
          538 -103 callsubr
          endchar
        </CharString>
        <CharString name="dvNG_GA">
          86 493 397 rmoveto
          -10 -5 -5 -10 hvcurveto
          -43 vlineto
          -10 5 388 callgsubr
          43 vlineto
          10 438 callgsubr
          -538 226 -73 callgsubr
          368 286 callgsubr
          -170 382 callsubr
          -53 -22 122 callgsubr
          208 hlineto
          19 16 11 23 hvcurveto
          101 vlineto
          6 197 callgsubr
          130 -101 callsubr
          endchar
        </CharString>
        <CharString name="dvNG_MA">
          262 466 394 rmoveto
          367 callgsubr
          -5 9 vhcurveto
          42 hlineto
          10 4 5 366 callsubr
          97 -393 rmoveto
          204 callgsubr
          -217 hlineto
          704 callgsubr
          58 vlineto
          37 17 20 35 50 vvcurveto
          33 456 callgsubr
          13 44 44 20 13 47 hvcurveto
          162 317 callgsubr
          101 529 callsubr
          7 vhcurveto
          189 -6 callgsubr
          -608 531 callgsubr
          3 -4 -6 hvcurveto
          -64 vlineto
          -7 -4 -3 -7 vhcurveto
          -124 hlineto
          -80 -49 -35 -77 hvcurveto
          -10 vlineto
          -78 620 callsubr
          96 544 callsubr
          -22 vlineto
          -45 -20 -15 -46 vhcurveto
          -90 hlineto
          -52 -23 11 51 hvcurveto
          8 vlineto
          13 438 callgsubr
          -35 hlineto
          -11 -5 -5 -13 hvcurveto
          -7 vlineto
          -94 51 -29 84 vhcurveto
          103 hlineto
          1 -207 hlineto
          -11 5 29 callgsubr
          38 hlineto
          10 6 4 11 hvcurveto
          81 vlineto
          7 197 callgsubr
          216 hlineto
          7 3 -4 -7 hvcurveto
          -166 vlineto
          -11 5 29 callgsubr
          38 hlineto
          10 5 4 11 hvcurveto
          800 vlineto
          6 3 -2 callsubr
          endchar
        </CharString>
        <CharString name="dvNY_CA">
          469 291 317 rmoveto
          3 0 17 -1 2 vhcurveto
          14 callgsubr
          1 2 387 callsubr
          97 hlineto
          497 callsubr
          -97 hlineto
          543 callgsubr
          247 57 655 callsubr
          92 vhcurveto
          66 617 callgsubr
          9 vhcurveto
          40 235 callgsubr
          -969 -67 callsubr
          805 -98 callsubr
          -300 vlineto
          -60 -34 -34 -60 vhcurveto
          -66 hlineto
          -59 -31 31 59 hvcurveto
          39 vlineto
          58 30 32 55 vhcurveto
          60 76 callsubr
          -277 hlineto
          -12 -4 -6 -9 hvcurveto
          -32 462 callgsubr
          108 hlineto
          endchar
        </CharString>
        <CharString name="dvOm.a01">
          134 callgsubr
          143 -61 rmoveto
          -11 249 callsubr
          105 hlineto
          54 38 -27 -68 hvcurveto
          -314 55 callsubr
          324 vlineto
          99 -56 53 -87 vhcurveto
          endchar
        </CharString>
        <CharString name="dvOm.a02">
          134 callgsubr
          253 -61 rmoveto
          -80 -46 -43 -81 hvcurveto
          -62 vlineto
          -12 5 -6 10 376 callgsubr
          6 12 hvcurveto
          56 vlineto
          48 21 20 48 1 vhcurveto
          10 hlineto
          47 -1 22 -20 -48 vvcurveto
          -340 55 callsubr
          351 vlineto
          82 -46 43 -80 vhcurveto
          endchar
        </CharString>
        <CharString name="dvSHA_MatraVocalicR">
          87 206 378 rmoveto
          -40 25 -28 31 53 vvcurveto
          59 23 19 54 53 22 -19 -59 -44 -17 -38 -52 -36 vhcurveto
          385 -485 628 callsubr
          -31 -42 -21 -23 -45 hhcurveto
          -31 hlineto
          -48 -22 21 56 52 11 26 54 hvcurveto
          45 -13 callgsubr
          550 -99 callsubr
          -126 hlineto
          -17 -11 -13 -17 hvcurveto
          -358 vlineto
          -153 97 224 callgsubr
          211 -135 rlineto
          -114 vlineto
          -81 -2 -42 -37 -95 vvcurveto
          -99 50 -40 82 vhcurveto
          513 callgsubr
          endchar
        </CharString>
        <CharString name="dvTTH_TTHA">
          12 374 266 rmoveto
          440 callsubr
          -457 vmoveto
          440 callsubr
          -377 726 -15 callgsubr
          320 -98 callsubr
          -25 487 callgsubr
          13 12 1 2 11 hvcurveto
          0 487 callgsubr
          92 58 55 92 hvcurveto
          64 vlineto
          62 -34 43 -50 11 vhcurveto
          4 vlineto
          28 13 10 25 39 vvcurveto
          39 vlineto
          29 25 17 39 49 vvcurveto
          64 500 callgsubr
          26 39 vvcurveto
          33 529 callsubr
          7 vhcurveto
          105 100 callgsubr
        </CharString>
</ttFont>
